<?xml version="1.0" encoding="utf-8"?>
<!-- Generator: Adobe Illustrator 19.0.0, SVG Export Plug-In . SVG Version: 6.00 Build 0)  -->
<svg version="1.1" id="Calque_1" xmlns="http://www.w3.org/2000/svg" xmlns:xlink="http://www.w3.org/1999/xlink" x="0px" y="0px"
	 viewBox="0 0 595.3 841.9" style="enable-background:new 0 0 595.3 841.9;" xml:space="preserve">
<style type="text/css">
	.st0{fill:#D44946;}
	.st1{fill:#FAF6C6;}
	.st2{fill:#FAF4C5;}
	.st3{fill:#030202;}
	.st4{fill:#EFC5A2;}
	.st5{fill:#030201;}
	.st6{fill:#040202;}
	.st7{fill:#040302;}
	.st8{fill:#050202;}
	.st9{fill:#050302;}
	.st10{fill:#050303;}
	.st11{fill:#060403;}
	.st12{fill:#F9F0C2;}
	.st13{fill:#F9EFC1;}
	.st14{fill:#F8EEC0;}
	.st15{fill:#F6E5B9;}
	.st16{fill:#F8EFC1;}
	.st17{fill:#0A0605;}
	.st18{fill:#F8EBBE;}
	.st19{fill:#F8EEC1;}
	.st20{fill:#F8EDC0;}
	.st21{fill:#FBEDE5;}
	.st22{fill:#180D0C;}
	.st23{fill:#FEFDFA;}
	.st24{fill:#FEFDF9;}
</style>
<g>
	<path class="st0" d="M524,533.2c-21.4-7.4-42.3-15.5-61.6-27.5c-16.9-9-32.8-19.5-48.4-30.6c-1-2.5-3.3-3.8-5.4-5.2
		c-8.6-5.7-17.1-11.7-25.5-17.8c-3.1-2.2-6.2-4.4-9.1-6.8c-2.9-2.4-8-3.5-8.5-7c-0.7-3.9,4.5-6,6.5-9.4c0.5-0.6,1-1.1,1.5-1.7
		c3.4-3.8,6.6-7.7,10.1-11.4c1.3-1.3,2.3-1.1,3.5-1.4c1-3.6,1.9-7.1,5.4-9.3c3.1-5.2,6.9-8.5,11.2-10.6c0.7-0.7,1.5-1.3,2.6-1.7
		c0.3-2.1,1.3-4,3-5.2c-0.3,0-0.6,0-0.9,0c4.4-5.5,9-9.1,12.7-13.6c3.5-5.6,9.3-9.3,13.1-14.7c2.2-2.5,4.4-5,7.6-7.5
		c0.1,0.8,0.1,1.7,0.1,2.5c0.3-0.7,0.6-1.3,1.1-1.9c0.5-2.1,1.8-3.9,3.9-4.7c0.9-3.5,3.2-6.2,6.9-8c0.1-1.7,2.2-4.9-1.7-4.4
		c-9.4,1.2-17.1-2.6-24.7-7c-17.9-10.4-33.5-23.8-49-37.4c-2.2-1.9-3.1-2.5-5.2,0.4c-12.7,17.3-26,34.2-41.3,49.4
		c-10.7,10.7-20.7,22.1-31,33.2c-3,3.2-5.1,6.2,0,9.6c2.7,1.8,5,4.1,7.5,6.2c3.3-1,5.3-3.3,6.4-6.5c-0.3-2.3,1.1-3.6,2.4-5.2
		c13.6-16,28-31.3,41.8-47.1c6.2-7,11.4-14.7,17.1-22.1c1.1-1.5,2.3-4.5,5-1.5c1.5,1.6,3,3.2,5.5,2.4c0.9,0,2.1-0.3,2.6,0.1
		c7.7,6,15.4,12.1,23,18.4c2.1,1.7,1.6,3.9,0,5.8c-3.1,3.6-5.9,7.4-9.3,10.7c-21.1,20.7-39.6,43.8-59.9,65.2
		c-5.6,5.9-5.4,6.2,0.8,11.3c2.4,2,4.9,3.8,7.3,5.7c0.9-0.2,1.7-0.6,2.3-1.4c9.3-13.2,20.8-24.4,31.4-36.4
		c14.5-16.4,28.4-33.3,41.8-50.6c1-1.3,1.9-3.3,4.1-2.9c0.5,0.6,0.4,1.1,0.1,1.6c-0.7,1.5-1.8,2.8-2.8,4
		c-19.5,24.8-41.1,47.9-62.6,71c-4.7,5-10,9.6-12.8,16.1c1.5,1.2,3.1,2.5,4.6,3.7c0.8,0.7,2,1.4,1.2,2.6c-0.9,1.4-2.2,0.9-3.3,0
		c-1.2-0.9-2.4-1.6-3.6-2.5c-20.9-16.5-40.4-34.7-60.2-52.5c-38.1-34.3-71.1-73.3-100.8-115c-20.1-28.1-37.9-57.5-48.5-90.7
		c-3.6-11.2-5.1-22.3-1-33.7c0.7-1.9,0.7-4.7,4-4.2c3.3-0.4,4.7-3.1,6.6-5.2c0.8-1.9,2.4-2.4,4.2-3c9.5-3.5,18.7-1.8,27.7,1.6
		c5.6,2.1,5.9,3.2,2.5,8.3c-8,12.2-16.4,24.1-23.4,36.9c-1.1,1.9-2.2,3.8-4.5,4.6c-3.4,2.7-5.5,6.3-6.2,10.6
		c1.4,3.6,2.9,7.2,4.9,12.1c12.5-20.9,26-39.4,40.2-57.4c7.2-9.1,6.8-8.9,16.8-3.8c15.9,8.1,32,15.8,48,23.7
		c5.2,2.6,10.3,5.4,15.3,8.4c1.8,1,5.1,2.9,0.1,4.4c-1.8,0.5-1.1,2.4-1.9,3.4c-0.6,1.6-1.6,2.8-2.7,4.1c-9.1,10.4-18,21-26,32.3
		c-3.9,5.5-7.4,11.3-12.6,15.7c-2.1,2.3-5,4-4.7,7.8c0,0.7,0.3,1.7,0,2.1c-7.7,10.8-13.1,23.2-21.4,33.6c-1,1.2-3,2.1-1.4,4
		c3.4,4.2,6.1,9,10.4,12.7c7-9.6,13.4-19.4,20.8-28.4c15.9-19.3,32.3-38.1,48.4-57.2c4.5-5.3,8.9-10.6,13.4-15.8
		c1-1.1,2.2-2.2,3.8-1.4c1.2,0.6,0.6,1.9,0.5,3c0.7,2.9,2.5,4.7,5.7,5c3.1-2,5.2,0.5,7.3,1.9c20.7,14.7,39.5,31.7,60.2,46.4
		c1.3,0.9,3.4,2,1.9,4.4c-1.6,2.6-3.8,4.7-5.5,7.2c-0.8,1.7-1.8,3.1-3,4.5c-19.6,23.7-37.6,48.8-59.2,70.8
		c-4.8,4.9-8.7,10.8-14.3,14.8c-1.3,1.1-2.3,2.3-1.8,4.2c0.6,4.7-3.1,7.5-5.2,10.9c-4.3,6.8-4.3,7.5,2,12.1c1.6,1.2,2.5,1.4,3.9-0.4
		c8.8-11.1,18.6-21.5,28.6-31.6c17-17.3,33.1-35.4,46.7-55.5c3.2-4.7,5-4.4,8.2-0.6c1.6,1.9,3.9,3.2,5.9,4.7c1.8-0.2,2.6-1.5,3-3.1
		c2.8-6.4,7.8-11,12.6-15.9c0.7-0.7,1.6-0.6,2.5,0c1.5,0.8,2.5,2.3,4,3.1c2.8,0.4,5.2,1.5,7.4,3.2c10.4,8.2,20.7,16.6,29.7,26.4
		c2.3,2.6,4.2,5.4,5.6,8.6c0.7,1.7,0.1,2.3-1.5,2.5c-2.6,1.4-3.6,4-4.8,6.5c0.2,2.9-1.2,4.3-3.9,4.6c-1,0.3-1.9,0.6-2.3,1.7
		c3.5,1.8,7.2,2.4,11,2.3c9.6-0.2,15.4-6.2,15.9-15.8c0.4-7-2.5-12.7-6.4-18.1c-22.4-31.9-49.3-59.5-78.7-85
		c-46.9-40.5-98.8-72-158.7-89.4c-16.5-4.8-32.7-10.2-50.2-9.2c-7.2,0.4-14.5,1.2-20,5.9c-10.4,8.8-18.1,19.5-22.8,32.6
		c-6.8,18.9-2.6,37.2,2.9,55.2c2.1,6.9,0.5,11.3-4.4,15.3c-4.1,3.4-7.9,7-11.4,11c-22.6,26.3-48.5,49.6-69.7,77.3
		c-1.1,1.4-2.3,3.6-4.9,2.2c-2.5,0.2-3.1,2-3.4,4c0.2,1.1,0.4,2.4-1,2.6c-2,0.3-2.9-1.1-3.7-2.6c-2.9-5.1-2.8-10.9-4.1-16.3
		c-3.1-12.9-5.2-26.1-9.4-39.4c-4.6,5.4-6.9,10.9-7.1,17.3c-0.3,9.4,1.9,18.3,3.9,27.4c0.6,2.5,2.5,5.1,0.5,7.8
		c3.1,1.9,3.4,4.5,2.2,7.6c0.8,5.4,3.1,10.4,3.8,15.7c1.7,3.8,2.9,7.8,4.5,11.7c4.3,12.7,10.1,24.8,16.4,36.6
		c2,3.8,3.4,8.1,7.4,10.5c4.9,7.6,9.7,15.3,14.6,22.9c1,1.5,2.2,3,0.4,4.7c5.6,0.7,6.3,6.1,9,9.6c1.4,5.7,5.6,9.7,9,14.2
		c17.5,23.1,36.2,45.4,54.8,67.6c15.6,18.6,32.2,36.4,50.9,51.9c19.4,16.1,40.2,30.3,62.2,42.7c27.7,15.7,56.8,28.4,86.9,38.7
		c1.6,0.5,3.1,1.1,4.7,0.3c32,12.3,64.7,22.6,98,30.8c4.2,1,7.2,0.8,10.1-2.6c2.8-3.3,6.1-6.3,9.1-9.4c-1.1-2.3-3.3-2-5.2-2.3
		c-5.7-1.1-11.5-1.9-17.3-2.9c-11.5-2.1-22.4-6.1-34.4-9.7c8.1-6.6,14.4-13.6,21.3-20.1c20.4-19.1,40.3-38.7,59.2-59.4
		c4.8-5.3,9-11,14.1-16c3.4-3.3,6.8-3.9,11.3-2.1c11.7,4.7,23.9,7.7,36.5,9.2c2.7,0.3,5.5,1,7.9-1c15.6,3.5,21.7-8.9,30.2-18.2
		C563.1,543.6,543.3,540,524,533.2z"/>
	<path class="st1" d="M298,348.7c-0.9,1.2-1.8,2.3-2.6,3.5c-5.2,1-6,6.1-8.2,9.5c-3,4.6-4.4,4.7-8.4,0.8
		c-19.9-19.9-38.8-40.7-56.6-62.5c-2.3-2.8-2.6-4.3-0.3-7.7c20.8-31.1,47.3-57.5,70.7-86.4c3.6-4.5,6.3-9.9,11.6-12.9
		c1.8,1.4,3.6,2.8,5.4,4.1c6.5,0.9,11,5.5,15.8,9.2c16.5,12.6,32.5,25.9,49.2,38.4c2.4,1.8,5.2,3.5,5.7,7c-1.9,2.1-3.8,4.3-5.7,6.4
		c-8.5,7.1-14.3,16.6-21.1,25.1c-16,20.2-32.8,39.7-50.2,58.6C301.3,343.9,300,346.6,298,348.7z"/>
	<path class="st1" d="M277.6,177.1c0.5,1.1,0.5,2.1-0.7,2.9c-15,14.9-27.1,32.2-39.4,49.3c-1,1.3-1.7,2.8-2.2,4.4
		c-1.9,2.3-3.7,4.5-5.6,6.8c-3.4-1.3-4,1.8-5.2,3.5c-6,9.1-11.1,18.8-17.5,27.7c-2.5,3.4-3.7,4.3-6.6,0.1
		c-13.4-19.5-27.4-38.6-38.6-59.6c-2.8-5.3-1.8-9,1.2-13.9c12-19.7,26.1-37.8,40.3-55.8c1-1.3,1.3-3.4,4-1.8
		c17.1,10.5,35.9,17.8,53.6,27C266.7,170.6,272.5,173.4,277.6,177.1z"/>
	<path class="st1" d="M40.4,313.9c-1.1,1.3-2.3,2.7-3.4,4c-2-2.3-2.4-5.2-3-8c-3.8-15.9-7.5-31.9-11.6-47.7c-0.8-3-0.2-4.7,1.7-6.6
		c26.9-25.2,50.8-53.4,76.2-80.2c8.9-9.4,17.2-19.3,26.8-30.1c-2.8,7.8-4.7,14.4-5.8,21.2c-2.4,15,1.9,29,6.1,42.9
		c1.3,4.3,0.9,6.9-2.2,10.1c-26.6,28.3-55,54.9-78.7,85.8C44.4,308.2,40.4,309.6,40.4,313.9z"/>
	<path class="st1" d="M382,306.1c1.6,1.2,3.2,2.4,4.8,3.6c-0.6,2.1,0.9,3,2.2,4c5.5,4.3,10.9,8.6,16.4,12.7c5.6,4.3,6,4.7,0.9,9.8
		c-17.9,17.8-33.9,37.2-51.2,55.5c-5.9,6.2-11.7,12.5-17.3,19c-2.1,2.5-3.4,2.3-5.6,0.3c-7.8-7.2-15.6-14.2-23.5-21.3
		c1.8-2.2,3.7-4.4,5.5-6.6c0.3-1.5,1.1-2.6,2.2-3.7c15.5-16.4,30.2-33.7,45.2-50.6c5.4-6,9.9-12.6,14.7-19.1
		C377.6,307.9,378.5,304.8,382,306.1z"/>
	<path class="st1" d="M404.6,271.8c1.7,0.4,2.9,1.3,3.3,3.1c14,9.2,26.2,20.4,37.5,32.5c4.2,4.5,4.8,6.5,3.3,10
		c-0.1,2.9-2.9,4.2-4.1,6.4c-0.8,2.3-2.5,3.8-4.4,5.2c-0.8,0.2-1.7,0.3-2.5,0.5c-10.7-4.1-19.4-11.5-28.3-18.3
		c-8.1-6.2-15.9-12.8-23.9-19.2c0.7-1.1,1.4-2.2,2.2-3.3c4.1-4.5,7.8-9.4,12.1-13.7C401.2,273.6,402.4,271.9,404.6,271.8z"/>
	<path class="st1" d="M145.4,136c1.5-2.1,3-4.1,5.3-5.4c11.2-6.9,22.6-5.4,33.9-0.5c4,1.7,3.2,4.8,1.3,7.7
		c-5.4,8.2-10.6,16.6-16.1,24.7c-3.9,5.7-5.8,12.6-11,17.5c-2.1,3.3-4.3,6.5-6.4,9.8c-3.6-8.3-6.6-16.8-8.7-25.5
		c-1.6-6.8-1.8-13.5,0.5-20.3C144.9,141.5,146.4,138.9,145.4,136z"/>
	<path class="st2" d="M351.4,426.9c7.1-12.8,18-22.4,27.5-33.2c16.4-18.6,32.7-37.3,47.5-57.3c2.5-3.4,4.7-5,8.3-1.2
		c-8.9,13-19.4,24.9-29.9,36.7c-16.7,18.6-33.6,37-50.4,55.5c-0.4,0.4-0.9,0.6-1.3,0.9C352.4,427.8,351.9,427.4,351.4,426.9z"/>
	<path class="st1" d="M555.2,567.3c1.9,0.4,3.8,0.8,6.3,1.3c-2.9,2.7-5.6,5.1-8.1,7.6c-29,29.2-58.3,58.1-88.2,86.3
		c-1.2,1.1-2.1,2.6-4,2.4c-1.6,1.3-3.4,1-5.2,0.8c-15-1.7-29.8-4.9-44.1-9.8c-5.4-1.8-6.2-4.2-2.1-8.2c10.4-10,21-19.7,31-30
		c18.1-18.5,37.3-35.9,53.6-56.1c4.9-6.1,10.2-7.5,17.7-4.5c12.3,5,25.3,7.9,38.7,8.4C552.5,565.6,554.2,565.7,555.2,567.3z"/>
	<path class="st3" d="M555.2,567.3c-16.6,0-32.4-4.2-47.8-9.9c-3.5-1.3-5.7-0.7-8.2,1.7c-6,5.9-10.9,12.8-16.7,18.8
		c-23.4,24.6-47.5,48.4-72.4,71.4c-0.9,0.8-1.8,1.7-3.1,2.8c17.5,7.6,35.8,10.1,54.1,12.8c-0.4,1.1-0.8,2.3-1.2,3.4
		c-19.5-2-38.2-7.3-56.8-12.9c-1.1-0.3-2.1-0.6-2.3-2c-0.1-1.2,0.3-2.1,1.4-2.8c9-5.1,15.6-13.1,22.8-20.2
		c19.5-19.1,39.6-37.8,57.8-58.3c5.2-5.9,9.9-12.1,15.9-17.3c2.8-2.4,5.3-2.5,8.5-1.3c14.9,5.7,30.2,9.6,46.1,10.5
		c3,2.1,6.7-0.1,10.3,1.7C560.9,568,557.8,566.5,555.2,567.3z"/>
	<path class="st4" d="M583.1,132.7c-3.1,1.2-6.2,2-9.5,1.2C576.6,131.9,579.7,131.1,583.1,132.7z"/>
	<path class="st1" d="M248.3,368.4c1.8,1.8,3.7,3.7,5.5,5.5c2,4,5,7.2,8.5,9.9c20.2,15.9,38.5,34,58.5,50.1c3.3,2.6,6.6,5.2,10,7.6
		c2,1.5,4.3,3,3.4,6.1c-0.4,0.5-0.9,0.9-1.3,1.4c-22,29.3-48.6,54.3-74.3,80.2c-6.4,6.5-11.8,13.9-17.3,21.2
		c-4,5.3-8.9,9.7-12.4,15.2c-1,0.7-2.1,1.3-3.1,2c-4.5,1.9-7.2-1.5-10.2-3.6c-12.3-8.9-23.8-18.7-35.4-28.5
		c-15.1-12.9-27.7-28.1-41-42.6c-1.8-2-3.3-4.4-4.9-6.6c-2.6-3.7-2.3-6.9,0.9-10.3c31.7-34.1,64.7-67.1,97.7-99.9
		c2.6-2.6,5.6-4.7,8.4-7C243.4,367.4,245.8,366.5,248.3,368.4z"/>
	<path class="st1" d="M371.7,474.7c2.2,0,1.4,2.3,2.4,3.3c1.5-0.1,2.8,0.5,4,1.4c28.5,22,59.4,40.2,90.8,57.6c0.6,0.4-0.2,0,0.4,0.3
		c1.4,0.2,2.3,1,3.2,2c0.1,2.2-1.2,3.8-2.5,5.3c-12.4,13.4-24.9,26.6-37.5,39.9c-16.2,17.1-34,32.5-49,50.7c-0.8,1-2,1.6-2.9,2.5
		c-1.3,1.4-2.7,2.8-4,4.2c-5.5,0.8-10.7-0.2-16-2.1c-33.8-11.9-65.6-27.9-96.7-45.4c-1.4-1.1-3.5-1.3-4.3-3.2
		c0.5-2.9,2.4-4.9,4.3-6.9c17.9-19.7,36.3-38.9,54-58.7c14.2-15.9,29.9-30.4,44.8-45.7C365.1,477.5,367.6,474.8,371.7,474.7z"/>
	<path class="st1" d="M52.1,351.2c0.8-1,1.7-2.1,2.5-3.1c-0.1-2.3,1.5-3.7,3-5c12.9-11.3,25.6-22.8,38.2-34.4
		c14-12.8,27.9-25.8,41-39.5c3.5-3.7,7.5-6.9,11.4-10.2c1.2-1,2.3-2.4,4.3-1.6c0.6,0.7,1.2,1.5,1.8,2.2
		c7.5,10.1,14.7,20.4,22.9,29.9c11.5,13.2,22.7,26.6,33.6,40.3c1.6,2.1,4.1,3.1,5.8,5l-0.1-0.1c2.7,2.4,1.9,4.8-0.1,7.2
		c-14.6,17.4-30.4,33.6-47.2,48.7c-19.4,17.4-38.7,35.1-54.7,55.8c-4.8,6.2-8.3,6.2-13,0c-6.6-8.8-12.7-17.8-17.8-27.5
		c-1.5-2.5-3-5-4.5-7.5c-9.9-13.8-17-29.2-25.8-43.6C50.4,362.8,47.3,357.1,52.1,351.2z"/>
	<path class="st5" d="M248.3,368.4c-2.7-0.4-4.8,0.7-6.8,2.5c-19.1,16.5-36.4,34.8-54,52.8c-17.1,17.5-34.4,34.8-50.8,53
		c-3.1,3.5-3.6,6.1-0.7,9.5c12.3,14.7,24.6,29.3,38.8,42.2c13.4,12.1,27,24,41.7,34.4c2.8,2,5.6,4.1,9.1,4.7c1.9,2.8,0,3-2.1,3
		c-3.1-0.1-5.4-2-7.7-3.7c-29.5-21.2-55.6-46-79.1-73.7c-2.7-3.2-4.9-6.8-7.3-10.2c-1.5-2.1,0.2-3.4,1.3-4.7
		c6.5-7.2,12.8-14.5,19.5-21.5c24.5-25.1,49.1-50,73.7-75c5.6-5.7,11.9-10.7,18.2-15.7c1.6-1.3,3.5-2.1,5.6-1
		C249.4,365.9,248.6,367.2,248.3,368.4z"/>
	<path class="st3" d="M83.8,418.9c4.7,3.5,6.8,8.9,9.9,13.5c3.5,5.1,6.8,10.3,10.8,15c2.6,3,5,3.2,7.5-0.2
		c18.4-25,42.1-44.9,64.9-65.5c14.1-12.8,26.1-27.5,39.3-41c2.2-2.3,0-4.1,0.4-6c2.1-0.5,3.5,0.2,4.1,2.3c0.7,2.2,0,4-1.5,5.5
		c-13.7,13.9-26,29-40.5,42.3c-20.1,18.5-41.7,35.6-58.4,57.6c-1.7,2.2-3.4,4.3-5.1,6.4c-5,6-8.7,6.1-13.9,0.4
		c-5.9-6.5-9.9-14.4-14.9-21.6c-1.2-1.8-2.4-3.6-3.8-5.4C81.4,420.6,82.2,419.7,83.8,418.9z"/>
	<path class="st6" d="M371.7,474.7c-17.4,14.3-33,30.7-48.3,47.2c-19.5,20.9-38.7,42.2-58.1,63.2c-1.9,2.1-2.9,5.1-5.8,6.3
		c-2.4-2.5-0.5-4.4,1.1-6.1c33.8-37,66.6-74.9,103.5-108.9C366,474.5,368.1,470.2,371.7,474.7z"/>
	<path class="st6" d="M228.8,565.6c-1.7-2.6,0.9-3.4,2-4.9c22.1-31.2,51.4-55.8,77.1-83.7c6.2-6.7,11.7-14,17.1-21.3
		c2-2.7,3.4-6.6,7.9-6.6c0.4,1.5-0.1,2.7-1.1,4c-13.3,17.6-27.6,34.5-43.7,49.7c-18.7,17.7-36.6,36.2-51.9,57.1
		C234.4,562.3,232.8,565.6,228.8,565.6z"/>
	<path class="st7" d="M152.6,257.4c-21.3,17.5-39.4,38.5-60.2,56.6c-12.8,11.2-25.2,22.7-37.8,34c-3.7-2.6-0.1-4,1.2-5.4
		c8.6-9,18.1-16.9,27.4-25c16.7-14.7,32.9-29.9,48.3-45.9c5.8-6.1,12.2-11.4,18.7-16.8c1.1-0.9,2.4-2.1,3.8-0.6
		C155.8,256.1,153.6,256.5,152.6,257.4z"/>
	<path class="st7" d="M380.6,637.7c-1.2-1.9,0.5-2.4,1.4-3.5c17.2-19.7,36.8-37,54.4-56.2c12-13,24-25.9,36.1-38.8
		c3.9,1.9,1.3,3.8-0.2,5.4c-13.4,14.4-26.7,28.9-40.3,43c-14.1,14.7-28.5,29.1-43,43.5C386.6,633.8,385.7,638.5,380.6,637.7z"/>
	<path class="st8" d="M263.8,594.5c2.3-1.8,3.8,0.3,5.3,1.2c29.4,16.2,59.3,31.2,91.1,42.3c4.6,1.6,9.1,3.9,14.3,2.5
		c0.5-0.1,1.4,0.9,2.1,1.4c-3.7,4-8.1,2.6-12.2,1.2c-17.4-5.7-34.6-12.2-51-20.4c-15.1-7.6-30-15.6-44.9-23.5
		C266.5,598.2,263.7,597.6,263.8,594.5z"/>
	<path class="st6" d="M298,348.7c-1.4-3.2,1.2-4.8,2.8-6.5c19.9-21.5,38.9-43.8,57-66.9c3.7-4.7,7.3-9.6,11.2-14.1
		c1.4-1.6,2.5-4.4,5.7-3.1c0.4,1.6-0.4,2.7-1.4,3.9c-23.2,28.3-45.6,57.4-70.9,83.9C301.1,347.2,300.2,348.9,298,348.7z"/>
	<path class="st7" d="M469.4,537.3c-1.7,0.5-3.3,0.1-4.7-0.7c-31-18.2-62.7-35.4-90.5-58.6c0.5-3.1,1.8-3.1,4-1.3
		c27.3,22.8,58.7,39.4,89.2,57.2C468.8,534.7,470.5,535.1,469.4,537.3z"/>
	<path class="st7" d="M334.2,447.7c-0.6-1.8-1.8-3.1-3.3-4.2c-25.1-18.3-46.9-40.5-71-59.9c-2.8-2.3-7.4-4.3-6-9.6
		c0.8,0.3,1.9,0.4,2.5,0.9c22.4,20.9,45.8,40.7,69.3,60.4c3.1,2.6,6.6,4.6,9.5,7.3C336.9,444.2,338.9,446.8,334.2,447.7z"/>
	<path class="st7" d="M382,306.1c-3.6,1.6-5.1,5.1-7.2,8c-17.8,24.3-38.9,45.7-58.9,68c-0.4,0.5-1.2,0.7-1.9,1
		c-2.5-2.5-0.1-3.8,1.2-5.4c15.6-17.6,31.2-35.2,46.9-52.8c5.1-5.7,8.9-12.4,13.7-18.4C377.5,304.8,379.5,300.8,382,306.1z"/>
	<path class="st7" d="M216.7,334.8c-3.1,0.8-4.9-1.3-6.4-3.2c-15.2-19.9-32.7-38-47.7-58.2c-3.2-4.3-7-8.3-8.2-13.8
		c2.2-1.2,3.3,0.1,4.4,1.8c13.3,21.4,31.5,39.1,47,58.7C209.6,324.9,214.3,329,216.7,334.8z"/>
	<path class="st6" d="M158.7,180c1.6-5.8,5.1-10.7,8.1-15.7c5.7-9.5,11.9-18.7,18.2-27.9c2-3,1.5-4.2-1.7-5.3
		c-9.8-3.4-19.6-5.6-29.6-0.5c-1,0.5-2,0.8-3-0.1c-0.3-2.4,1.5-3.2,3.2-3.8c12.3-4.7,23.9-2.3,35.3,3.1c3.2,1.5,1.9,3.6,0.5,5.8
		c-6.2,9.4-12.5,18.8-18.6,28.3c-2.5,3.8-4.5,7.9-6.9,11.8C163,177.8,162.2,180.7,158.7,180z"/>
	<path class="st9" d="M380.3,251.7c-23.4-18.3-46.1-37.6-70.7-54.5c0.2-3.6,2.1-2.7,3.9-1.4c6.5,4.7,13.3,9.1,19.5,14.1
		c15,12.2,30.3,24,45.7,35.6C380.6,246.9,384.8,248.4,380.3,251.7z"/>
	<path class="st10" d="M235.4,233.6c-1.8-1.7-0.9-3.1,0.3-4.7c11.7-16,23.3-32,36.7-46.8c1.4-1.5,2.7-2.4,4.6-2.2
		c0.8,1.9-0.3,3.1-1.5,4.3c-13.2,13.9-24.1,29.6-35.5,44.9C238.7,230.9,237.6,232.9,235.4,233.6z"/>
	<path class="st10" d="M52.1,351.2c-2.3,6.3-0.1,11.7,3.2,16.8c8.2,12.9,14.4,26.9,23.3,39.4c0.9,1.3,1.5,2.5,0.7,4
		c-2.7,0.1-3.7-2.1-4.8-3.9c-9-13.6-16.3-28.3-24.7-42.3c-1.8-3.1-2.3-6.5-2.1-10C47.8,352.4,49.1,350.7,52.1,351.2z"/>
	<path class="st11" d="M448.7,317.4c0.3-4.4-2.6-7.3-5.3-10.1c-9.9-10.6-20.8-20.2-32.7-28.5c-1.4-0.9-3.6-1.4-2.8-3.9
		c2.5-1.3,4.3,0.5,5.9,1.7c12.6,9.4,24.8,19.3,34.8,31.5c2,2.4,3.7,5,3.8,8.3c0,1.3-0.4,2.6-2,2.8
		C449.2,319.4,449.2,318.1,448.7,317.4z"/>
	<path class="st12" d="M340.5,196.1c1.1,0.7,2.1,1.1,2.9,1.9c7.1,6.6,15,12.1,22.6,18.1c1.1,0.9,3.5,1.8,2,3.7
		c-1.5,2-2.9-0.1-4.1-0.9c-8.4-5.8-16.3-12.3-23.9-19.1c-0.8-0.7-1.9-1.4-1.3-2.6C338.9,196.6,339.8,196.5,340.5,196.1z"/>
	<path class="st13" d="M208.4,306.3c-0.5,1.8-1.5,2-2.9,1.3c-1.9-0.9-3-2.6-4.1-4.2c-4.6-6.5-8.6-13.4-13.8-19.5
		c-0.9-1-2.5-2.4-0.9-3.7c1.8-1.5,3,0.5,3.8,1.7c4.6,6.5,9.1,13.1,13.8,19.5C205.5,303.3,207.1,304.8,208.4,306.3z"/>
	<path class="st13" d="M259.4,150.7c-0.6,2.3-2.1,2.3-3.4,1.5c-7.5-4.5-15.4-8.3-23.4-11.7c-1.1-0.5-1.9-1.3-1.5-2.6
		c0.4-1.4,1.5-1.5,2.6-0.9c8,4,16.5,7,23.8,12.1C258.1,149.6,258.8,150.2,259.4,150.7z"/>
	<path class="st14" d="M287.4,387.8c0.7,0.6,1.6,1.2,2.3,2c5.3,5.7,10.1,12,16.7,16.4c0.9,0.6,1.8,1.5,0.9,2.7c-0.8,1-2,0.6-2.9-0.1
		c-7.5-4.8-12.6-12-18.6-18.3C284.5,389.2,285.6,388.2,287.4,387.8z"/>
	<path class="st15" d="M134.8,172c0.3,5.1,0.7,10,1,14.9c0.1,1.2,0.1,2.8-1.7,2.8c-1.2-0.1-1.7-1.3-1.7-2.4c-0.1-6-1.6-11.9-1-18
		c0.2-1.7-0.2-4.3,2.4-3.9c2.1,0.3,1.5,2.5,1.3,4.1C134.9,170.4,134.9,171.3,134.8,172z"/>
	<path class="st16" d="M64.9,407c0.6,0.5,1.2,0.9,1.6,1.5c3.6,5.6,7.2,11.3,10.8,17c0.8,1.2,1.1,2.5-0.4,3.2c-1.3,0.7-2-0.5-2.6-1.4
		c-3.5-5.5-7-11-10.5-16.5c-0.6-0.9-1.1-2-0.4-3C63.7,407.4,64.3,407.3,64.9,407z"/>
	<path class="st17" d="M404.6,271.8c-3.9,4.5-7.7,9-11.7,13.4c-1.4,1.6-2.7,3.5-5.2,3.4c-0.7-0.9-1.4-1.8-0.4-2.9
		c4.2-4.7,8.4-9.4,12.7-14C401.3,270.4,403.1,267.9,404.6,271.8z"/>
	<path class="st18" d="M162.7,526.2c0.7,0.5,1.5,0.9,2.1,1.5c4,4,8,8,12,12c0.8,0.9,2.2,1.7,1,3.2c-1.4,1.6-2.6,0.5-3.6-0.6
		c-3.9-4-7.9-8.1-11.8-12.1c-0.8-0.8-1.5-1.7-1.1-2.9C161.4,526.9,162,526.6,162.7,526.2z"/>
	<path class="st16" d="M435.9,505.1c-0.4,2-1.6,2.2-2.8,1.4c-5.7-3.5-11.3-7.2-16.9-10.8c-1-0.6-1.6-1.7-0.8-2.7
		c0.8-1.1,1.9-0.5,2.9,0c5.8,3,11.1,6.7,16.3,10.6C435.1,504.1,435.5,504.7,435.9,505.1z"/>
	<path class="st19" d="M548.2,555.8c-5.1-1-10.1-0.3-14.3-2.9c-0.9-0.6-2.1-1.1-1.5-2.4c0.5-1.3,1.8-1.3,2.8-0.8
		c4.1,1.8,8.4,2.2,12.8,2.3c1.4,0,3.3,0.3,3.1,2.2C550.9,556.1,549.1,555.9,548.2,555.8z"/>
	<path class="st16" d="M430.1,673.7c-2.8-0.5-6-0.9-9.2-1.6c-1.1-0.2-2.8-0.6-2.3-2.4c0.5-1.9,1.8-1.1,3-0.8c3,0.5,6.1,1,9.1,1.4
		c1.6,0.2,3.9-0.1,3.8,2C434.4,674.6,432.1,673.5,430.1,673.7z"/>
	<path class="st20" d="M300.4,625.3c3.3,1.8,7.1,3.7,10.9,5.9c0.7,0.4,0.2,1.3-0.2,1.9c-0.5,0.7-1.2,0.9-1.9,0.6
		c-3.5-1.8-7.1-3.6-10.5-5.5c-0.4-0.2-0.6-1.3-0.5-1.9C298.3,625.5,299.1,625.3,300.4,625.3z"/>
	<path class="st21" d="M391.1,404.7c0.4,0.4,0.7,0.7,1.1,1.1c-3.4,1.8-3,5.1-3.4,8.1c-0.1,1.1-1.4,0.8-2.3,0.7
		C385.6,410.2,387.8,407.2,391.1,404.7z"/>
	<path class="st22" d="M440.2,329c-0.2-3.1,2-4.3,4.4-5.2C446.8,328.6,443.9,329.2,440.2,329z"/>
	<path class="st23" d="M207.1,150.1c1.8,1.1,2.8,1.7,3.7,2.3c13.9,8.7,28.2,16.6,42.9,23.7c1.3,0.6,3.9,1.1,2.9,3.2
		c-0.9,1.7-2.9,0.6-4.4-0.1c-15.1-7.2-29.9-15-43.9-24.2c-1.1-0.7-2.4-1.2-1.9-2.8C206.5,151.4,206.8,150.8,207.1,150.1z"/>
	<path class="st24" d="M309.8,438.2c-0.2,0.4-0.4,1.1-0.8,1.2c-1.4,0.4-2.5-0.5-3.5-1.3c-4.9-4-9.8-8.1-14.6-12.2
		c-6.9-5.9-14.1-11.5-20.7-17.7c-6.6-6.2-12.6-13.1-18.9-19.7c-1.5-1.6-3.2-3-4.6-4.6c-0.9-1.1-4.1-1.2-2.5-3.3
		c1.8-2.3,3.4,0.2,5,1.3c7.7,5.7,13.2,13.5,20,20.1c11.5,11.4,24.5,21.1,36.9,31.6C307.5,434.9,309.2,436,309.8,438.2z"/>
	<path class="st24" d="M439.3,532c-0.3,0.6-0.3,1.4-0.7,1.6c-1.3,0.7-1.9-0.4-2.7-1.1c-7.5-6.3-14.7-13.1-24-16.8
		c-5.7-2.3-11.4-4.8-16.8-7.8c-7.9-4.5-13.6-11.4-20-17.6c-0.9-0.9-2.1-2-0.6-3.2c1.5-1.2,2.3,0.5,3.1,1.3
		c10.5,10.2,21.7,19.2,35.8,24.2c9.2,3.3,16.7,9.5,23.5,16.5C437.7,530,438.5,531,439.3,532z"/>
	<path class="st24" d="M200,327.5c-0.3,0.5-0.4,1.2-0.7,1.4c-0.9,0.4-1.8,0.1-2.5-0.5c-2.4-2.3-4.8-4.5-7-6.9
		c-14.4-16.2-26.8-33.9-39.3-51.5c-0.8-1.2-2.6-2.9-0.8-4.3c1.9-1.3,2.9,1,3.7,2.1c9,12.5,17.3,25.6,27.2,37.4
		c5.7,6.8,11.7,13.4,17.5,20.2C198.7,326,199.3,326.7,200,327.5z"/>
</g>
</svg>
