<?xml version="1.0" encoding="utf-8"?>
<!-- Generator: Adobe Illustrator 19.0.0, SVG Export Plug-In . SVG Version: 6.00 Build 0)  -->
<svg version="1.1" id="Calque_1" xmlns="http://www.w3.org/2000/svg" xmlns:xlink="http://www.w3.org/1999/xlink" x="0px" y="0px"
	 viewBox="0 0 595.3 841.9" style="enable-background:new 0 0 595.3 841.9;" xml:space="preserve">
<style type="text/css">
	.st0{fill:#F8957F;}
	.st1{fill:#F9957F;}
	.st2{fill:#F6947E;}
	.st3{fill:#D5816E;}
	.st4{fill:#C97967;}
	.st5{fill:#C77867;}
	.st6{fill:#F5937E;}
	.st7{fill:#9C6B64;}
	.st8{fill:#F2D664;}
	.st9{fill:#F4D865;}
	.st10{fill:#F5D965;}
	.st11{fill:#F4D965;}
	.st12{fill:#E0C55E;}
	.st13{fill:#DBC25B;}
	.st14{fill:#D0B857;}
	.st15{fill:#D4BC58;}
	.st16{fill:#CEB756;}
	.st17{fill:#C7B053;}
	.st18{fill:#C5AF52;}
	.st19{fill:#CDB557;}
	.st20{fill:#CAB454;}
	.st21{fill:#B5A14C;}
	.st22{fill:#D0B758;}
	.st23{fill:#978640;}
	.st24{fill:#C1AC51;}
	.st25{fill:#674037;}
	.st26{fill:#F3D765;}
	.st27{fill:#D5806D;}
	.st28{fill:#AC7C6E;}
	.st29{fill:#A76557;}
	.st30{fill:#B16F60;}
	.st31{fill:#F8F1E0;}
	.st32{fill:#F7F0DF;}
	.st33{fill:#9F6769;}
	.st34{fill:#F2D765;}
	.st35{fill:#F6EEDD;}
	.st36{fill:#F0E8D7;}
	.st37{fill:#CB8174;}
	.st38{fill:#F7957F;}
	.st39{fill:#F7F0E0;}
	.st40{fill:#F6F0DF;}
	.st41{fill:#F6A792;}
	.st42{fill:#F1AB97;}
	.st43{fill:#B76F5F;}
	.st44{fill:#AD6D5F;}
	.st45{fill:#B07364;}
	.st46{fill:#B56E5E;}
	.st47{fill:#F8F0DF;}
	.st48{fill:#DA8572;}
	.st49{fill:#CF7F6D;}
	.st50{fill:#6F473E;}
	.st51{fill:#B16D5D;}
	.st52{fill:#C37665;}
	.st53{fill:#B46C5D;}
	.st54{fill:#995E50;}
	.st55{fill:#B87162;}
	.st56{fill:#F79680;}
	.st57{fill:#F49580;}
	.st58{fill:#F9F3E2;}
	.st59{fill:#EA8E79;}
	.st60{fill:#F1D564;}
	.st61{fill:#EDD263;}
	.st62{fill:#F0D464;}
	.st63{fill:#F4B39F;}
	.st64{fill:#CCB25B;}
	.st65{fill:#C7AD5C;}
	.st66{fill:#CAAF5A;}
	.st67{fill:#CDC4B0;}
	.st68{fill:#BBA551;}
	.st69{fill:#A47564;}
	.st70{fill:#A27365;}
	.st71{fill:#9D6F62;}
	.st72{fill:#8C7C3E;}
	.st73{fill:#A27A5D;}
	.st74{fill:#A27364;}
	.st75{fill:#9E6E64;}
	.st76{fill:#E8A895;}
	.st77{fill:#9D6E64;}
	.st78{fill:#8D7E3B;}
	.st79{fill:#6F6330;}
	.st80{fill:#A87A64;}
	.st81{fill:#F99680;}
	.st82{fill:#F5EDDD;}
	.st83{fill:#F8AE9A;}
	.st84{fill:#F4AF9A;}
	.st85{fill:#F3B39F;}
	.st86{fill:#F9B19D;}
	.st87{fill:#F0B8A5;}
	.st88{fill:#F8B19D;}
	.st89{fill:#F6EFDE;}
	.st90{fill:#F5EEDD;}
	.st91{fill:#F89580;}
	.st92{fill:#F69580;}
	.st93{fill:#F7947F;}
	.st94{fill:#F8F2E1;}
	.st95{fill:#FAF0DF;}
	.st96{fill:#F9F2E1;}
	.st97{fill:#F9EFDE;}
	.st98{fill:#F5AC98;}
	.st99{fill:#F9E6D6;}
	.st100{fill:#F7EFDF;}
	.st101{fill:#F8AA95;}
	.st102{fill:#D6B8A8;}
	.st103{fill:#EFE7D7;}
	.st104{fill:#F9B9A5;}
	.st105{fill:#F2BAA7;}
	.st106{fill:#F8B29D;}
	.st107{fill:#E7A895;}
	.st108{fill:#9E6F63;}
	.st109{fill:#F8B8A4;}
	.st110{fill:#DBD1C2;}
	.st111{fill:#949087;}
	.st112{fill:#FAAC9A;}
	.st113{fill:#B4B0A4;}
	.st114{fill:#75736B;}
	.st115{fill:#BE7565;}
	.st116{fill:#A86859;}
	.st117{fill:#CDC8BA;}
	.st118{fill:#827F76;}
	.st119{fill:#B09D4E;}
	.st120{fill:#9F6F64;}
	.st121{fill:#A07362;}
	.st122{fill:#9F7064;}
	.st123{fill:#AC7F65;}
	.st124{fill:#A17363;}
	.st125{fill:#EBA894;}
	.st126{fill:#A17264;}
	.st127{fill:#E48A75;}
	.st128{fill:#C97A69;}
	.st129{fill:#D07E6B;}
	.st130{fill:#BA9486;}
	.st131{fill:#BA7868;}
	.st132{fill:#CBB4A5;}
	.st133{fill:#55362E;}
	.st134{fill:#E0DACB;}
	.st135{fill:#BDB8AC;}
	.st136{fill:#CCC7B9;}
	.st137{fill:#A39F94;}
	.st138{fill:#97948A;}
	.st139{fill:#E2BCAB;}
	.st140{fill:#A9A59A;}
	.st141{fill:#915E64;}
	.st142{fill:#F9EEDD;}
	.st143{fill:#F4E3D4;}
	.st144{fill:#925F64;}
	.st145{fill:#F8EFDF;}
	.st146{fill:#F4AB99;}
	.st147{fill:#AE8D87;}
	.st148{fill:#DCCDC1;}
	.st149{fill:#DAC9BE;}
	.st150{fill:#F1B6A8;}
	.st151{fill:#F1E2D3;}
	.st152{fill:#E88D7B;}
	.st153{fill:#EB8D7B;}
</style>
<g>
	<path class="st0" d="M209.1,832.1l-0.4,0.2c-0.5-0.2-0.9-0.3-1.4-0.5c-4.5-3.3-4.2-8.5-4.9-13.1c-9-65.5-17.8-130.9-25.9-196.5
		c-6.1-49.4-13.9-98.5-19.6-147.9c-6.4-55.2-14.3-110.3-21.2-165.4c-3.4-26.8-6.4-53.6-9.9-80.4c-0.7-5.1-0.7-10.1-0.1-15.2
		c0.6-2.8,2.6-4.7,5.1-5.8c13.8-6.3,27.7-10.2,42.5-3c3.6,3.6,5,8.2,5.6,13.1c4.7,41.7,10.2,83.4,14.9,125.1
		c1.7,14.9,3.9,29.7,5,44.7c0.3,3.8,0.2,7.5,0.1,11.2c-2,7.7-7.1,13.8-11.2,20.3c-15.9,25-20.5,51.8-15.6,80.7
		c2.7,15.9,6.2,31.4,12.8,46.2c6.7,15,17,27.1,29.2,37.9c3.2,2.8,6.9,5.3,7.8,9.9c4.2,19.1,4.9,38.7,7.3,58.1
		c3.6,30.5,7.4,61,10.7,91.6c2.9,26.6,5.9,53.1,8.9,79.7c0.3,2.7,0.5,5.3-0.3,8c-5.5,4-11.8,1.4-17.7,1.7c-2,0.1-2-2.2-1.9-3.8
		c0.2-2.8,0.8-5.7-0.5-8.4C226.4,831.2,222.1,833.8,209.1,832.1z"/>
	<path class="st1" d="M60.4,355.8c2.7-1.6,4.3-3.9,3.9-7.2c-1.4-10.7-2.7-21.4-4.6-32c-0.5-2.6-2.9-4.9-4.4-7.4
		c5.8-4.2,1.2-9.5,1.3-14.1c0.1-3.8-2.2-7.5,0-11.4c0.5-4-1.4-7.5-2.7-11.2c-1-7.5-2.1-15.1-3-22.6c-0.3-3-1.3-5.5-3.6-7.5
		c14.8-7.5,29.8-13.9,46.9-7c3.3,1.3,6.7,2.2,8.5,5.7c3.6,15.4,4.8,31.2,5.8,46.8c2,32,7.1,63.7,11.1,95.4
		c2.5,20.1,3.9,40.3,5.2,60.6c4.9,39.2,6.3,78.8,15,117.5c3.3,14.5,3.7,29.6,7.4,44c1.4,13,3,25.9,4.4,38.9c0.3,2.7,0.7,5.3-0.4,7.9
		c-2.5,3.5-4.5,1.2-6.6-0.5c-0.6-0.5-1.3-1.2-1.4-2c-1.6-11-9.8-19.2-13.5-29.9c-2,1.4-3.9,5.1-7.3,2.8c-4.3-3-8.7-6.5-8.3-12.1
		c1.1-16.8-2.9-32.2-11.6-46.6c-1.9-3.2-2.4-7.1-2.8-10.8c-0.6-4.8-1.7-9.6-5.3-13.1c-3.5-3.4-1.3-8.2-3.5-11.9
		c-4.8-18.9-6-38.3-9.1-57.5c-1.2-7.1-2.6-14.1-3.8-21.2c-1.5-2.6-4.4-3.4-6.6-5.1c5.7-7.6,8.9-15,3-24.6c-2.4-4-1.3-10.3-2.5-15.4
		c-0.6-2.7-0.8-5.3-3.6-6.6c-1.3-2.3-0.5-4.5,0.5-6.6c4.5-8.2,3.3-16.8-2.7-20.2c-3.1-3.8-2.7-9-5-13.1
		C60.7,357.2,60.5,356.5,60.4,355.8z"/>
	<path class="st2" d="M209.1,832.1c4.1-0.4,8.4,0.5,12.1-2.9c3.2-2.9,5.9-5.2,3.8-10c-0.7-1.6-1.7-4.6,1.4-5.1
		c2.6-0.4,4.5,1.1,4.7,4.2c0.1,1.8,1.6,3.9,1,5.4c-3.9,10.7,3.9,8.1,9.3,8.3c1.9,0.1,3.8,0,5.6-0.1c1.6-1.8,4-2.6,5.8-4.1
		c1.1-1.4,2.2-3,4.4-2.6c1.8,0.9,2.7,3.9,5.1,3.1c2.7-0.9,1.2-3.6,1.3-5.5c0.1-1.9,0.3-3.6,2-4.8c4.9-0.4,6.4-1.8,5.9-7.7
		c-2.5-29.4-6.6-58.7-5.5-88.4c0.2-4.5-0.8-10,5.1-11.3c5.4-1.2,9,2.9,11.8,6.9c2.7,3.7,3,7.2,1.9,14.4c2.1-2.3,4.2-3.2,6.7-1.7
		c1.3,1.2,1.9,2.7,2.1,4.4c0.3,5.6-1,11.3,0.9,16.8c0.5,2,0.5,4.1,0,6.1c-0.3,1.2-0.9,2.3-1.4,3.3c-2.2,3.9-0.3,8.5-1.9,12.5
		c-1.3,2.9-5.2,5.7-0.6,9c1.5,2.5,1.8,5.2,0.7,7.7c-1.4,3.4,2.4,0.6,2.3,2.1c0.1,9.9,1.2,19.8,1.5,29.7c0.1,2.7-0.6,5.4,2.5,6.9
		c2.1,0.7,4.1,0.1,6.1-0.3c2.5-1,5,0.5,7.5-0.1c3.3-7.1,0.9-14.8,1.2-22c0.5-12.3,4.3-24,4.4-36.3c0.2-21.4,3-42.6,3.9-64
		c1-23.7,1.2-47.4,5-70.9c1-6-1.4-12.3,1.6-18.2c7.6-6.4,17.8-7,26.4-11.2c3.1-1.5,6.7-1.6,9.8-3.6c2-1.3,4.1-1.4,5.6,1
		c0.6,10.1-0.8,20.1-1.6,30.1c-3,34.9-6.4,69.7-9.1,104.6c-2.2,28.8-6.4,57.4-7.1,86.3c-0.1,2.4-0.3,4.8-1.6,7
		c-4.6,4-9.6-0.2-14.4,0.8c-17.9,3.2-35.9,0.6-53.8,1.4c-2.1,0.1-4.3,0.1-6.4,0.2c-19.1,0-38.3,0-57.4-0.1
		C214.8,833.2,211.8,834,209.1,832.1z"/>
	<path class="st0" d="M90.9,528.1c1,6.3,8.4,9.8,8.9,15.1c1.7,18.2,15.2,32.4,16.5,50.6c0.4,5.1,1.3,10.1,0.2,15.1
		c-0.7,3.2,0.4,5,2.3,7.1c5.9,6.4,5.8,6.5,9.7-1.4c0.6-1.3,1-2.6,2.8-2.2c1.8,0.4,1.7,1.8,1.6,3.2c-0.5,7,1.4,12.4,7.6,17
		c4.1,3,1.7,9.5,3.9,14.2c1.3,2.8,2.3,5.3,4.9,6.9c3,1.2,3.6,3.8,3.8,6.5c0.6,8.2,1.8,16.3,2.1,24.6c-1.4,4-1.3,7.9,1.3,11.5
		c1.2,5.4,2.6,10.9,2.2,16.5c-1.8,6-1.1,12.7-5.1,18.2c-1.5,2-0.3,4.7,0,7c1.6,11.6,4.1,23.1,4,34.9c-0.1,5.3,0.9,10.7,2.8,15.7
		c3.6,9.5,6.9,18.8,4.8,29.5c-0.8,4.1-2.3,10.9,5.9,11.6c5.3-0.4,11,0.3,12.8-6.7c0.5-1.9,3.1-3.4,4.2-1c3.1,7.5,9.7,7.3,16,8.1
		c1.3,0.2,2.4,1.1,3.6,1.7c0.3,0.3,0.6,0.5,1,0.8c-10.1,2.6-20.4,0.8-30.5,1c-12.1,0.3-24.3-0.3-36.4-0.1c-4.2,0.1-6.1-0.6-6.7-5.4
		c-1.8-14.2-4.3-28.3-6.5-42.4c-1.6-6.6,0.1-11.8,6.4-15.1c4.3,0.7,3.8,4.6,4.9,7.4c4.4,11.4,3.4,23.7,6.8,35.3c1,3.6,2.7,7.1,2,9.1
		c1.1-4.4-1.6-10.4-2.6-16.2c-2.7-17.1-0.6-35-8.2-51.2c-0.6-1.2-1-2.6-0.9-3.9c0.7-10.2-0.5-20.1-2.4-30.1c-1.5-8.2,1.9-9.8,14.2-7
		c-3.3-8.4-2.3-17.8-12.3-22.2c-6-2.7-5.7-9.8-9-15.3c-1.6,4.9-0.9,8.8-0.3,12.7c2.3,14,4.1,28,8.1,41.7c2.4,8.3,3.7,17.2-0.9,25.6
		c-8,0.5-8.9-6.5-12-11.2c-3.4-23.5-6.9-47-10.3-70.5c-0.2-3.7,0.5-7.3,1.7-10.8c1.7-5,1.6-9.8-4.7-11.9c-1.7-1.9-1.8-4.1-1.4-6.4
		c2.5-4.7,2.1-9.1-1.7-13c-2.5-8.3-2.4-16.9-3.7-25.3c1.7-7.9,0.1-15.5-3.1-22.8c-0.2-0.5-0.2-1-0.1-1.4c0-6.1-0.3-12.2-3-17.9
		C93.8,552.8,91.2,540.6,90.9,528.1z"/>
	<path class="st3" d="M135,770.9c-2.6,4.7-6.6,8.7-6.6,14.6c-2-13.4-4.1-26.8-6.1-40.3c4.6,2.9,7.2,7.6,11,11.2
		C137.3,760.9,137.2,765.7,135,770.9z"/>
	<path class="st4" d="M109.1,651.9c4.4,2.1,3.9-1.7,4.6-4.6c5.7,10,3.3,18.8-1.6,27.4C110.4,667.2,108.9,659.6,109.1,651.9z"/>
	<path class="st5" d="M99.2,584.4c6.2,5.4,7.6,15.7,3.1,22.8C100.3,599.7,99,592.1,99.2,584.4z"/>
	<path class="st4" d="M105.9,632.5c1-0.7,2-1.5,3-2.2c0.1,3.8,4.6,6.5,2.8,10.6c-0.8,1.8-2.7,3.1-4.1,4.6
		C107.3,641.2,105.1,637,105.9,632.5z"/>
	<path class="st5" d="M96.1,565.1c5.9,5.1,7.2,11,3,17.9C97,577.2,95.9,571.2,96.1,565.1z"/>
	<path class="st6" d="M540.5,417.7c-2.5,18.2-6.7,36.2-8,54.6c2.3,5.5-0.6,10.2-2.3,15.1c-5.9,0.6-5.9,0.6-7.1-7.2
		c0.2,3.6-1,6.9-2.3,10.1c-1.2,28.7-7.8,56.7-10.8,85.2c-5.8,13-2.6,27.3-5.8,40.6c-1.2,4.9,3.8,6.6,5.8,9.9
		c0.4,1.2,0.4,2.3-0.2,3.4c-3.5,8.2-3.4,17.1-5.4,25.6c-2.9,1.3-4.5-0.4-6.5-3.4c-0.2,3.6-0.4,6.5-1.4,9.1c7.5-3.4,6,2.2,6.3,5.9
		c0.7,7.7-2.3,14.9-3.3,22.3c-2.2,5.3-3.4,10.9-4.4,16.5c-1.3,7.8-6.6,13.9-8.3,21.5c-0.8,3.9-2.3,7.7,3.1,10c2.8,1.2,3.3,4,1.7,6.8
		c-0.1,0.5-0.3,1.1-0.4,1.6c-1,1.5,0.5,4.3-1.7,4.9c-2.9,0.7-3.8-2.3-5.7-4.4c-3,11.6-5.2,22.8,1.1,33.8c1.4,2.4,1.7,5,0.2,7.5
		c-2.2,13.9-4.4,27.8-6.5,41.8c-1.5,1.3-2.9,0.7-4.4-0.1c-0.5-0.3-2-4.4-2,0.4c0,2.9-2.3,3.9-5.1,3.7c-8.3-0.3-16.6,0.7-24.9-0.6
		c-3.2-2.5-2.3-5.8-1.9-8.9c4.6-33.7,8-67.5,12.3-101.3c6.2-47.7,10.4-95.7,18.5-143.2c3.7-22.2,8.1-44.3,10.7-66.5
		c3.2-27.4,6.1-54.8,8-82.3c2.5-33.9,8.5-67.4,12.2-101.2c3.1-28.4,6.5-56.9,8.3-85.4c0.1-1.9,0-3.8,0.8-5.5
		c3.3-5.2,8.9-5.5,14.2-6.2c10.7-1.3,20.8,1.6,30.9,4.6c2.9,0.8,5.4,2.4,6.4,5.6c0.8,1.6,3.4,3,0.8,5.2c-1.3,0.9-3.9,1.7-0.3,3.1
		c0.5,6.9-3.3,13.5-1.6,20.6c-4.3,8-2.7,17.1-4.4,25.6c-2.4,12.4-3.4,25.1-5,37.7c-0.2,1.8-0.9,3.7,0.7,5.3
		c2.5,11.6-4.2,22.1-3.8,33.6c0.2,4.4,0.4,9.7-3.7,13.4C543.3,396.7,540.2,406.9,540.5,417.7z"/>
	<path class="st7" d="M534.1,151.9c2.1,2.1,4.2,4.2,6.3,6.3c-2.7,5-7.1,2.9-10.8,2.2c-7.3-1.4-13.3,0.6-19,4.9c-3,2.2-5,4.8-4.7,8.8
		c0.3,3.7-0.6,7-3.9,9.1c-7.4,4.5-11.2,11.4-13.1,19.5c-0.6,2.4-1.4,4.6-3.4,6.2c-1.1,0.6-2.2,0.8-3.5,0.6c-2.7-0.7-3.4-3.3-5-5
		c-2.7-2.8-3.8-5.2,0.4-7.6c1.7-1,2.9-2.6,2.6-4.6c-0.5-2.5-2.8-2.1-4.6-2.3c-13.6-1.9-24.2-8.3-31.9-19.8
		c-6.3-9.4-11.1-10-20.7-3.4c-2.2,1.5-4.1,3.5-7.1,3.5c-2.8,0.1-5.7-0.2-7-3c-1.7-3.4,1.9-3.8,3.5-5.2c0.6-0.5,1.2-1.1,0.9-2.6
		c-6.7-1.3-8.2,3.5-9.6,8.4c-1.9,5-4.2,9.1-10.4,4.8c-1.9-2.7-4.4-5.2-3.3-9.1c5.6-7,11.6-13.3,21.5-14c2-0.1,3.6-1.4,3.4-3.7
		c-0.4-3.8-2.4-6.7-6-7.8c-4.7-1.5-9.7-1.2-14.5-0.5c-6.3,1-12.1,1.1-18-2.3c-4.5-2.6-9.1-0.7-12.3,3.1c-3.6,4.3-7.7,9.1-4.3,15.1
		c3.1,5.5,2.4,11.4,3,17.1c0.3,2.3-1.2,6.2-3.9,3.5c-4-4-6.2,0.4-9.1,0.4c-1.7,0-3.1-0.6-3.9-2.2c-0.6-1.6-0.4-3.1-0.2-4.7
		c1.6-10.7,0.1-13.8-9.8-18c-3.7-1.6-6.1-4-7.8-7.6c-3.9-8.7-8.4-10.7-17.3-7.5c-4.8,1.8-8.2,1-11.1-3.2
		c-7.1-10.3-19.6-11.5-28.5-2.5c-3.8,3.9-7.1,7.3-13.1,8.3c-5.5,0.9-9.1,12.4-6,17.8c2.5,4.4,4.3,8.6,2.8,13.6
		c-1.1,3.6,2.2,4.4,4,6.1c0.3,3.7-2.5,5-5.2,6.3c-5.7,0.7-11,0.2-14.9-4.7c-0.7-2.4,2.1-3.6,1.9-5.8c0.2-3.8-0.2-6.7-5.1-7.5
		c-6-1-5.6-5.2-2.8-8.9c3.7-4.9,7.7-10.3,3.5-15.9c-4.4-6-11.8-4.8-18-2.8c-7.4,2.3-14.6,3.2-22.3,1.7c-6.6-1.3-11.3,1.7-15.2,7.4
		c5.2,2.5,9.9,4.1,14.8,5.5c4.3,1.2,8.1,3.2,9.6,7.8c0.6,2.8-0.1,5.8,1.8,8.3c0.4,0.6,0.8,1.3,1.1,2c0.6,1.5,1,2.9,0,4.4
		c-3.6,1.6-4.7,9.7-11.2,4.3c-1.3-2.4-2.4-5-2.4-7.6c0.2-7.5-4.2-10.4-10.7-11.4c-6.7-1-13.5,0.4-20.2-0.1c-1.8-0.1-3.7,1.2-4.3,3.2
		c-3.8,14.4-16.3,19.3-28.1,24.6c-10.2,4.7-11.5,6-11.6,17.3c0,4,0.6,8,0.7,12c-0.1,1.8-0.7,3.4-1.8,4.8c-1.9,2-4,3.7-7.1,2.8
		c-4.2-2.5-3.1-6.4-2.7-10c1.1-10.5,0.5-20.4-9-27.5c-1.7-1.3-2.5-3.5-3.1-5.6c-1.3-4.9-5.1-7.4-8.5-10.8
		c-7-7.1-14.4-11.2-24.3-11.3c-1.1,0-1.8-1.1-2.3-2.1c3.1-2,7.8-0.4,10-4.4c4.8-3,10-1.7,13.8,0.7c7.7,4.8,15.3,10.2,20.6,17.8
		c5.5,8,15.8,10.7,24.1,5.1c7.4-5,16.3-8.8,18.1-19.3c0.6-3.2,4.4-4.6,7-6.4c4.9-3.4,7.2-7.3,3-12.8c-2.1-2.7-2.6-5.8-2.3-9.1
		c0.2-1.6,0.6-3.5-0.4-4.7c-9.4-11.5,2.2-23.7-1.4-35.3c1.1-0.2,2.1-0.4,3.2-0.6c4.2-0.4,6.4,2,7.8,5.5c1.6,3.2,2.1,6.7,1.8,10.2
		c-1.2,12.6,1.3,24.8,4.4,36.8c5-8,12.6-11.6,22.1-11.5c1.4,0,2.7,0.1,4.1,0.1c12.8,0.8,16.4-1.1,17.5-8.9
		c1.6-12.2-3.7-20.5-14.5-22.7c-2.8-0.5-5.5-1.3-6.8-3.8c-5.1-9.9-13.7-9.8-23-8.4c-3.3,0.5-6.7,2.8-10.1,0
		c-0.7-1.1-0.9-2.2-0.6-3.5c8.8-9.8,28-10.3,37.9-1c7.6,7.2,7.7,7.2,13.4-1.5c7-10.8,17.1-16.5,30-15.1c11.5,1.3,12.9-3,10.1-13.2
		c-0.7-2.5-2.9-4.7-0.9-7.5c1.7-0.5,3.4-1,5.1-1.5c7.5,5.6,7.6,13.7,6.9,21.8c-0.4,4.2,1.7,7.6,2.3,11.1c1.8,11.1,10,17.7,15.8,26
		c1.4,2,2.2,4.3,2.8,6.6c0.9,3.2,2.7,5.1,6.2,5.4c6.2,0.5,11.5,2.8,15.8,7.4c3.6,3.8,6,1.8,6.5-2.2c1.3-10.8,6.9-18.4,15-25.6
		c5.1-4.6,5.2-13.1,10.3-18.6c0.9-0.9-0.6-2.4-1.1-3.7c-4.3-10.9,0.3-23.3,10.6-28.5c1.1,0,2.2,0,3.4,0c2.8,0.2,6-0.2,7,3.4
		c0.8,3-1.3,4.1-3.6,4.8c-5.8,2.6-9.4,9.3-7.9,14.6c0.9,3.3,3.4,4.8,6.6,4.8c15.5-0.2,27.5,6.3,36.4,18.7c2.4,3.4,4.9,2.5,7.4,0.2
		c3.6-3.2,6.8-6.9,11.7-8.4c3.6-0.9,7.3-1,11-0.5c0.8,0.1,1.5,0.2,2.3,0.3c4.1,1.2,8,2.8,12.3,3.1c1.8-0.4,2.6-1.8,3.5-3.2
		c1.1-3.3,2.5-6.8-0.3-9.7c-4-4.2-2.7-8.6-1-13.1c0.1-1.9,0.1-3.7,0.2-5.6c0.3-2.2,0.6-4.5,3.2-4.9c2.4-0.4,3.9,1.4,5.2,3.2
		c4.2,5.9,4.5,30,0.4,36.2c-1,1.6-2.5,2.9-3.2,4.7c-0.9,2.4-1.2,5.1,1,6.6c2.5,1.7,3.8-1,5.2-2.5c6.6-7.4,14.9-8.9,23.6-5.2
		c6,2.5,11.5,5.5,18.4,4.2c2-0.4,4.2,0.6,6.1,1.9c1.7,1.5,2.5,3.2,1.8,5.4c-0.7,1.1-1.7,1.6-3,1.8c-3.9-0.9-7,1-10.1,3
		c-3.7,2.3-7.5,4.3-10.2,7.8c-1.5,1.9-3.4,3.8-6.2,2c-2.3-1.5-2.6-3.9-2.2-6.4c0.1-0.8,0.4-1.5,0.7-2.3c0.8-2.7,3.3-5.7-0.3-7.8
		c-3.6-2.1-6.8-0.3-9.6,2.1c-6.2,5.4-6.9,13.6-1.8,19.9c2,2.4,5.2,4.5,3.7,8.2c-1.4,3.4-4.8,3-7.7,3c-4.8,0.1-7.7,2.6-9,6.8
		c-1.6,5.1-1.4,10.3,2.9,14.1c3.5,3.2,5.6,6.7,7.3,11.2c4.3,11.7,21.2,20.1,33.5,17.3c4.5-1,7.5-3.1,9-8
		C499,155.2,518.1,146.2,534.1,151.9z"/>
	<path class="st8" d="M154.3,86.4c3.7,8.3,6,16.5-1,24.5c-1.4,1.7-1.2,4.7,2,5.8c0.3,0.1,0.5,0.2,0.8,0.3c1.9,0.8,4,2.8,3.2,4.1
		c-5.4,9.2,10.2,17.6,3,23.9c-11.9,10.5-16.9,27.6-33.1,33.3c-6.6,2.4-13.8,1.7-20.7,0.3c-0.7-0.1-1.6-0.9-1.7-1.5
		c-1.2-7.8-8-10.9-12.6-16c-6.6-7.3-13.7-9.5-22.3-10.7c-1.8-3.3-4.7-4.5-8.2-5.7c-10.1-3.4-14.6-12.4-11.3-21.5
		c0.7-1.1,0.2-3.1,1.5-3.6c5.8-2.4,6.2-7.4,6.4-12.5c1.4-0.8,2.8-2.5,4.1-2.4c10.4,1.1,16.6-7.1,24.8-10.8c4.2-1.9,8.4-4.1,13.1-2.9
		c6.7,1.8,13.2,4.4,17.8-3.6c7.4,0.2,14.7,1.2,21.6-3.4c3.1-2.1,7.7,0.4,11.3,2C153.5,86,153.9,86.1,154.3,86.4z"/>
	<path class="st9" d="M61.8,154.8c3.8,0.3,7.6,1.1,11.3,0.6c6.7-0.8,11,1.4,13.1,7.8c0.2,0.7,0.6,2.1,1,2.1
		c14.8,0.3,11.1,16.5,20.1,22.8c7.7,5.4,5.3,16.6,4.3,25.7c-0.3,2.5-2.3,5.1,0.7,7.3c0.6,0.6,0.9,1.3,0.9,2.1
		c-1.3,5-4.3,9.1-6.5,13.7c-1,2.1-2.5,4.3-5.6,3.4c-9.6-3.1-19.2-6.5-29.7-4.8c-3.7,0.6-8,0.7-10.4,3.6c-4,4.7-8.5,4.6-13.6,3.2
		c-8.6-4.9-19.9-1.2-27.8-8.4c0-0.4-0.1-0.9-0.2-1.3c-5.3-8.5-3.1-17.3-1.5-26.2c1.2-2.7,0.5-3.8-2.5-5.2c-6-2.8-9.8-7.3-7.7-14.8
		c2-7,8.3-12.4,15.6-13c8.3-0.7,17.1-0.5,22.5-8.6c6.1-2.1,11.7-4.9,16-9.8L61.8,154.8z"/>
	<path class="st10" d="M534.1,151.9c-8.3,0-16.5,0.4-24.1,4.6c-7.4,4-13.9,8.4-13.6,18.1c0.1,4.1-3.4,5.1-6.5,6.1
		c-18.3,6-36.8-4-41.6-22.7c-0.6-2.3-2.4-2.6-3.9-3.6c-8.1-5.1-9.8-17.5-3-24.2c2.6-2.6,5.8-4.9,10.1-2.9c1.8,0.8,4.4,1.7,5.5-1.2
		c0.9-2.5-1.6-2.8-3-3.9c-4.7-3.7-7.8-8.3-6.1-14.6c1.9-7,5.3-12.9,13.1-14.9c3.8-1,6.8,0.2,9.4,3.1c2.9,3.2,0.4,5.4-1.2,7.8
		c-1.2,1.8-2.6,3.5-2,5.8c0.3,0.9,0.8,2,1.6,2.6c1.2,0.8,2.1-0.2,2.4-1.2c1.6-6.1,7.8-6.9,11.9-10.1c4.2,0.8,9,0.2,11.8,4.7
		c-1.4-2.1-4.5-3.6-2.1-6.8c1.1,0,2.2,0.1,3.2,0.1c5.4-0.9,9.5,4.5,15.1,3.1c1,1.2,1.9,2.3,2.9,3.5c5.5,4.9,11.2,8.5,18.2,2.2
		c0.6-0.6,2.1,0.2,2.9,1c11.4,7.7,16.9,29,0.1,38.2C532.5,148.4,532,149.5,534.1,151.9z"/>
	<path class="st11" d="M346.6,39.6c-2.7,4.2-6.9,7.3-8.3,12.6c-1.9,7.2-3.8,14.1,4.6,19.5c-6.3,4.5-12.4,8.8-10.4,17.3
		c0.4,1.6-0.7,2.5-2,3c-11.5,4.8-14.9,14.6-16.3,25.6c-0.4,3.2-0.9,5.6-4.5,6.5c-3.6,0.9-4.8-1.6-6.3-3.8c-3.2-5-8-7-13.8-6.6
		c-4.8,0.3-7.9-0.5-8.6-6.5c-0.9-7.7-6.1-13.6-12.7-17.8c-3-2-5-3.6-3.5-7.5c0.8-2.2,1-5.7-1-6.8c-6.9-3.7-5-8.8-3.5-14.4
		c2-7.6-2.4-13.9-4.7-20.7c3.8-3,7.8-5.5,12.9-5.4c0.2-6.4,6.8-7.2,9.9-11c11.4,0,22.7,0,34.1,0c0.6,0.5,0.9,1.2,1.2,1.9
		c-0.1,9.7-10,12.5-13.9,19.5c-0.3,0.5-0.7,0.8-0.8,0.9c5.5-2.2,10.1-5.6,13.4-11.1c2.6-4.3,7.6-4.4,12.4-3.5c1.1,0.2,1.8,0,0.7-0.1
		c-0.1,0-0.1-0.3-0.3-0.6c-1.3-2.2-3.5-3.9-2.8-6.8c3-1.4,5.3,1.4,8,1.3c5.2,2.3,9.5,5.6,11.4,11.2C342.2,39,344.7,39,346.6,39.6z"
		/>
	<path class="st9" d="M484.8,208.3c1.8-6.1,2.4-12.5,6.1-18.1c2.4-3.6,4.8-7.1,9-8.8c3.3-1.4,5.4-2.7,3.3-7.1
		c-1.5-3.2-0.1-6.6,3.1-9.1c7.1-5.7,14.2-10.3,24.2-7.1c2.8,0.9,6.7,2.7,10.1,0.1c7.2,2,13.6,4.8,15.6,13c1,4,5.1,2.3,7.7,2.8
		c10,1.9,19.5,3.8,23.1,15.4c1.8,5.9,1.8,11.5-2.7,15.2c-4.6,3.7-3.6,7-1.9,11.1c2.4,5.8,2.5,11.4-1.5,16.6
		c-4.9,2.2-10.6,0.5-15.4,3.4c-5.5,1.9-9.5-0.3-12.2-4.9c-1.6-2.8-3.4-3.2-6.6-2.6c-7.5,1.4-15.3,1-22.6,4c-6.2,2.6-10-1.6-13.3-6.8
		c1,2.5,2.2,4.5,0.9,6.7c-6.5,1.7-8-4.6-11.8-7.2c-2.1-2.4-3.9-5.1-6.6-6.8c-2.6-2-5.6-3.4-8-5.7
		C484.1,211.1,483.7,209.8,484.8,208.3z"/>
	<path class="st8" d="M434.6,82.9c-5.1,2-8.7-2.1-13.1-3.2c0.9-2.4,3.6-4,3.2-7.2c-1.2,2.7-2.3,5.4-4.8,7c-4.3,0.1-8.6,0.3-13,0.4
		c-1.5-1.1-1.6-2.7-1.3-4.4c7.2-9.1,7-10.5,1.6-18.1c-3.7-5.3-3.8-13.6-13.2-13.2c-6.5-1.9-13.2-1.2-19.8-0.9
		c-6.1-5.5-1.3-10.8,0.3-16.1c0.4-1.4,2.2-2.2,3.2-3.5c9.7,0,19.4-0.4,29.1,0.1c7.1,0.3,12.4,4.1,15.4,10.7
		c-0.5,1.3-0.3,1.9,1.2,1.2c3.8,3.8,9.7,2.3,13.9,5.6c2.3,1.8,4.2-1.7,5.5-3.4c5.2-6.9,12.3-7.9,20.2-7c2.4,0.3,5,1.2,7.2,0.6
		c9-2.1,15.4,3.2,19.3,9c3.8,5.6,9.4,8.8,13.4,13.8c0.4,7.7,1.2,15.4,1.2,23.2c0,6-4.4,9.8-6.7,14.7c-0.6,1-1.4,1.8-2.6,1.9
		c-4.4,0-8.8-1.9-13.3,1c-2.5,1.7-4.2-1.5-6-2.9c-9.8-7.4-20.1-6.2-27.3,3.5c-2.3,3-4.6,5.8-8.1,2.4c-3.3-3.1-4.7-8.3-1.7-11.3
		c7.2-7.2,9.2-13.8,4.4-23.6c-1.8-3.6,2.6-10-0.5-15c-0.8-1.3-1.8-3.1-3.5-2.6c-0.7,0.2-0.8,2.3-1.2,3.5c-2.2,2.2-2.1,4.4,0.2,6.4
		c-0.7,4.2-4.2,8.1,2.1,12.2c3.3,2.2,1.1,8.2-1.9,11.9C435.6,79.6,434.7,80.9,434.6,82.9z"/>
	<path class="st8" d="M250.5,41.5c1.6,4.3,5.7,7.3,5.3,12.9c-0.7,10.3-1.7,12.3-11.8,10.5c-8-1.4-14.6,0.5-21.5,4.4
		c-6.5,3.7-9.1,9.7-12.3,15.4c-2.9,5.2-6.6,4.2-9.7,1.3c-13.7-13.4-22.2-14.9-39.2-6.2c-1.1,0.8-1.7,2.5-3.6,1.6l0,0
		c0.5-6.5-5.3-11.3-4.7-17.8c-0.8-3.4,2-5.4,3.2-8c5.4-0.9,6.3-4.1,5.8-9.1c-0.9-8.1,2.3-10.7,10.3-9.5c1.8,0.3,4.6,1,4.7-1.4
		c0.2-7.1,5.7-8.2,10.7-10.1c1-0.4,1.8-1.1,2.7-1.8c11.6-0.1,23.1-0.3,34.7-0.3c2.1,0,5.4-0.8,6,1.2C233.9,34.5,245.8,34,250.5,41.5
		z"/>
	<path class="st12" d="M510.8,232.6c-1.2-4.1-2.4-8.2-3.8-12.6c4.6,0.7,5.8,4.7,7.7,7.1c4.3,5.2,8.6,4.5,13.2,1.6
		c3.7-2.4,7.6-1.8,11.4-2.5c8.5-1.5,15.6-2.1,19.9,7.1c1,2.2,3.4,0.8,5.2,0.7c5,1,6.2,3.1,2,6.7c-1.3,0.4-2.6,0.9-3.9,1.3
		c-16-6.6-32.1-11.4-49.4-4.8C510.8,236.4,510.3,234.8,510.8,232.6z"/>
	<path class="st13" d="M377.6,23.6c0.6,1.4,4.8,2.4,1.8,3.8c-7.6,3.6-5,9.7-5.1,15.3c2,3.9-0.6,5.5-3.7,6.1
		c-6,1.1-9.9,10.9-17.6,4.3c-2.3-2-4-4.5-1.3-7.5c1.4-0.2,3.6,0.7,3.7-1.5c0.1-3.5-4.3-2.1-5.5-4.4c2-0.8,3.9-2.2,5.9-2.4
		c5.7-0.4,8.1-2.9,8.9-8.8C365.8,20.4,372.9,24.1,377.6,23.6z"/>
	<path class="st14" d="M190.4,23.7c-1.3,3.5-0.6,9-7.8,5.8c-2.5-1.1-2.2,2.4-2.2,4.5c0,6.7-2.9,8.4-9,5.8c-1.4-0.6-3.4-4-3.9-1.6
		c-0.5,2.9-6.6,2.9-3.1,7.5c2.6,3.5-1.5,8.1,1.2,13c-4-1.3-6.7-2.2-9.4-3.1c-0.8-4.6,1.4-8.8,1.7-13.2c0.1-1,0.8-2.6,1.4-2.7
		C171.4,37.4,175.9,21,190.4,23.7z"/>
	<path class="st15" d="M496.2,92.3c4.4-10,8.6-19.9,2.8-31c-1.6-3.1,4.4-3.7,3.8-7.1c11,15.7,9.8,24.5-5,38.1
		C497.3,92.9,496.7,92.9,496.2,92.3z"/>
	<path class="st16" d="M535.4,108.6c-4.5-1.4-3.1,3.8-5.9,4.9c-7.1,2.9-10.4,1.4-15.2-8.2C521.9,102.9,529.3,101.6,535.4,108.6z"/>
	<path class="st17" d="M153,86c-2.6-0.5-5.2-1.1-7.9-1.3c-1-0.1-6.5-2-1.7,2.7c1.9,1.8-1.6,1.6-2.7,1.7c-5.3,0.4-10.5-0.2-15.5,2.8
		c-4.8,2.9-1.5-5.1-5.2-4.6C130.8,82.2,141.7,79.9,153,86z"/>
	<path class="st18" d="M17.8,206.5c5,3.4,4.7,3.1,1,7.7c-1.5,1.8-2.2,6.1-1,7.9c2.2,3.6,1.5,7,1.6,10.6
		C11.8,226.4,11.4,218.1,17.8,206.5z"/>
	<path class="st19" d="M496.2,92.3c0.5,0,1.1,0.1,1.6,0.1c3.9,4,11.4,3.1,13.6,9.5c-1.3,3.1-2.8,6.1-6.5,2.3
		c-2.5-2.6-6.6-2.3-8.6-5.4c-0.5-1.5-1.1-3.1-1.6-4.6C495.3,93.6,495.7,93,496.2,92.3z"/>
	<path class="st20" d="M61.7,155.1c-0.5,3.7,0.3,8.4-6.2,7.6c-5.2-0.6-0.1,4.9-5.6,5.6c-0.5,0-1.2-3.9-4.3-3.4
		C49.5,159.2,54.2,154.9,61.7,155.1z"/>
	<path class="st21" d="M566.4,240.6c2.4-3.1,0.2-4.9-2-6.7c5-4.3,10.6-4.1,16.3-1.7C577.5,237.5,572.6,240,566.4,240.6z"/>
	<path class="st22" d="M153.1,63.6c1.4,0.8,0.8,3.2,1.2,3.3c9,3.1,4.9,9.1,3.5,14.5C150.1,77,149.4,70.8,153.1,63.6z"/>
	<path class="st23" d="M60.2,107c4.3,7.3,2.8,10.8-5.2,13.5c-1.1,0.4-1.8,1.7-2.7,2.6C52.9,116.8,55.2,111.3,60.2,107z"/>
	<path class="st14" d="M312.4,25c0-0.5,0-1,0-1.4c3.3,0.1,6.6,0.1,9.9,0.2c2.2,1.6,4,3.6,4.6,6.4C319.6,33.8,315.2,32.3,312.4,25z"
		/>
	<path class="st14" d="M341.8,36.2c-3-4.5-10.1-5.1-11.4-11.2C337.9,22.1,341.2,25.2,341.8,36.2z"/>
	<path class="st24" d="M278.3,23.6c-0.1,3.6,0.9,7.8-5.4,6.5c-3.2-0.6-1.7,4.1-4.4,4.5C268.8,23.1,268.8,23.1,278.3,23.6z"/>
	<path class="st22" d="M157.7,81.4c1.2-0.5,2.4-1.1,3.6-1.6c0,1.1-0.1,2.2-0.1,3.4c1.7,0.8,3.4,1.4,5.4,0.9c3-0.8,5.6-0.3,5.5,3.5
		c-0.1,3.1-2.2,4.7-5.4,4.6c-1.3,0-2.5-0.7-3.8-1.2c-0.4-3.1-4-2.9-5.3-5.1C158.4,84.4,158.4,82.9,157.7,81.4z"/>
	<path class="st25" d="M563,250.2c-1.9,1-3.7,2-5.6,3c-2.3-7.3-2.2-7.3,5.9-6.1C563.2,248.1,563.1,249.1,563,250.2z"/>
	<path class="st26" d="M423.4,35.6c-0.4,1.4,0.4,3.4-1.6,4c-1.4,0.4-2.7-0.6-3-1.9c-0.5-2.5,1.5-3,3.3-3.4
		C422.6,34.8,423,35.2,423.4,35.6z"/>
	<path class="st27" d="M485,787c1.3-6-3.8-10.2-5.7-14.8c-4.5-10.8,2.8-19.8,1.1-29.6c-0.2-1.3,1.4-2.1,2.9-2c3,0.2,3,2.4,3.3,4.6
		c0.2,1.4-0.1,3.7,2.3,3.2c0.9-0.2,1.4-2,2.1-3.1c1.6,4.5-2,8.4-1.3,12.8C487.5,767.5,488.3,777.6,485,787z"/>
	<path class="st28" d="M442.7,831.8c3,0,6,0.2,8.9,0.1c9.3-0.2,21.1,3.9,20.9-13.3c2.1,4.2-0.3,9.9,6,10.1c1.1,6.1-3.5,4.7-6.7,4.8
		c-19.5,0.2-39,0.3-58.4,0.4c-23.2-0.1-46.4-0.3-69.5-0.4c-2.9,0-6,0.5-8.5-1.7c4.1-3.5,8.2,1.1,12.3,0.1c2.4-1.6,4.8-3.1,8-2.5
		c1.4,0.1,2.8,0.1,4.2,0c2.7-0.5,5.5-0.4,8.2-0.1c12.6,0.7,24.9-2.8,37.4-2.1c6.2,3.1,13,0.9,19.4,2.2c1.8,0.1,3.7,0.1,5.5-0.4
		C434.7,828.5,438.9,829.4,442.7,831.8z"/>
	<path class="st27" d="M491.5,743.5c-0.5-1.5-0.9-3-1.5-4.4c-1.6-3.4-7.8,0.6-7.6-3.4c0.3-5.7,1.5-11.9,4.2-16.9
		c4.8-9,8.2-18,8.7-28.2c0.1-2.7,2-2.8,4.1-1.8C496.8,707,494.1,725.3,491.5,743.5z"/>
	<path class="st29" d="M502.7,666.4c-0.8-1.9-1.5-3.8-2.8-6.9c-2.3,2.8-4.1,5.1-7.4,9.1c1.8-9.6,3.2-16.9,4.6-24.6
		c5.8,2,0.1,10.4,7.1,10.9C504.8,658.9,505.1,662.9,502.7,666.4z"/>
	<path class="st30" d="M53.9,272.5c3.3,3.2,6.8,6.3,2.7,11.2C52.4,280.7,53.9,276.4,53.9,272.5z"/>
	<path class="st31" d="M100.9,240.4c6.2-4.4,5.3-13.2,11.2-17.8c4.9-1.4,4.6,2.4,4.8,5c2,21.7,4.3,43.5,6.4,65.2
		c0.6,5.6,2.7,10.9,2.3,14.8c-3.4-17.2-4.6-36.5-6.4-55.6c-1.1-11.2-4.1-22.5-2.2-33.9c0.6-1.1,1.2-2.2,1.8-3.4
		c2.1-2.7,4.7-3.9,8-2.1c1.5,12.1,3,24.2,4.6,36.3c4.2,32.5,8.6,65.1,12.7,97.6c2.6,20.4,4.5,40.8,7.2,61.2
		c1.8,14,4.1,27.9,6.8,41.7c2,10.3,1.2,20.7,2.8,31c5.6,36.6,9.6,73.4,15.5,110c2.7,17,3.5,34.4,5.8,51.6c3,22.2,6,44.4,9,66.6
		c1.9,14.3,3.7,28.6,5.6,42.9c2.4,18.2,4.9,36.4,7.4,54.6c1.1,8.5,2.3,16.9,3.5,25.4c-2.1,0.2-4.3,0.6-6.4,0.6
		c-7.1,0-16,2.6-14.6-10.7c-1.5,11.3-1.5,11.3-15.4,10.3c-3.7-3.7-4.6-8.5-4.9-13.3c-1.7-25.3-6.4-50.3-9.1-75.5
		c-1.1-10.1-0.3-20.1-1.1-30.1c-0.6-5.9-1.3-11.7-1.9-17.6c-2.3-3-0.8-6.5-1.4-9.7c-1.2-10.7-2.4-21.3-3.6-32
		c-1-16-4.6-31.8-4.8-47.9c-1.5-7.9,0.5-16-1.4-23.9c-1.1-4.7,2-6.8,6.8-5.8c2.9,0.6,5.8,1.4,7.4,4.2c3.5,25.8,5.9,51.8,8.4,72.1
		c-2.2-20-4.2-45.7-8.4-71.1c-2.9-17.6-3.9-35.3-6.8-52.9c-0.8-4.8,0.8-9.5,1.5-14.3c0.1-15.8-0.8-31.5-4.9-47
		c-0.6-2.1-1.6-3.9-2.7-5.7c-1.5-11.6-4.5-22.9-4.7-34.7c-0.1-6.1-1.3-12.1-2.3-18.1c-2.7-16.5-4-33.2-5.8-49.9
		c-0.6-5.5-2.8-10.9-1.9-15.2c0.1,10.7,2.7,22.6,3.7,34.6c1.8,20.6,5.8,41,7.3,61.7c0.5,7.1,3.4,14,2.2,21.3c-0.5,0.9-1,2-2.2,2.1
		c-4.6,0.3-13.9-6.9-15-11.5c-0.6-2.6-2-4.8-3.6-6.9c-3.9-40.3-8.3-80.5-14.1-120.6c-2.9-19.9-3.5-40.3-5.6-60.4
		C101.8,255.8,101.5,248.1,100.9,240.4z"/>
	<path class="st32" d="M197.9,176.2c1.7,1.7,3.4,1.8,3.9-0.8c0.7-3.9,3.5-4,6.4-4.2c1.4-1,2.8-0.9,4,0.2c3.3,9.7,3.1,20,3.9,30
		c3.7,49.7,8.4,99.3,12,149c0.5,7.5,1.8,14.8,0.2,22.3c-3,5.9-7.5,9.7-14.5,9.8c-2.9-1.9-2.8-4.9-3.1-7.8c-2-24.1-5.4-48.1-7.4-72.3
		c-0.1-1.5,0.1-3.3-0.8-3.7c3.7,27.8,5.7,56.4,9.5,84.7c-1.6,7.9-7.9,14.5-15.1,15.8c-4.4-38.6-8.7-77.2-13.2-115.8
		c-2.6-22.7-5.3-45.4-8.2-68.1c-0.5-3.6-2.3-7-3.6-10.5c-1.3-8.4,7.1-20.8,15.8-23.3c6.3,5.3,5.8,12.8,6.1,19.7
		c1.1,23.4,4.4,46.5,6.4,69.8c0.3,3.4,0.3,6.9,1.2,10.3c-4.7-33.5-5.2-67.5-10.8-101C191.9,176.9,194.2,175.4,197.9,176.2z"/>
	<path class="st33" d="M197,399.3c4.6-4.5,10-8.2,13.3-13.9c0.4-2.6,2.2-3.1,4.5-3.2c3.9-2.9,7.9-5.8,11.8-8.7c0.6-3.7,3-6,6.2-7.7
		c11.3-6,23-11.2,35.7-13.8c11.9-4.9,24.4-4.1,36.9-4.2c2.2,0,4.2,1,6.4,0.6c11.5-0.1,22.3,2.7,32.8,6.8c16,4,28.6,14,41.5,23.6
		c4,5,9.5,8.3,13.8,12.9c1.3,1.4,2.6,2.8,3.7,4.2c3.9,6.6,9.9,11.6,14.1,18.1c16.3,25.1,20.8,53.4,20.7,82.2
		c-0.1,18.7-4.5,37.2-16.1,53.1c-7.8,10.6-15.4,21.4-24.2,31.2c-5.4,3.8-8.8,9.7-14.4,13.3c-1.7,1.5-3.8,2.5-5.3,4.2
		c-2.9,3.8-1.3,8.7-3.3,12.7c-0.9,1.8-0.9,4.7-3.7,4c-2.4-0.6-2.4-3.1-2.4-5.3c0-2.6,2.2-5.7-1.8-7.4c-4.8,7.5-14,5.4-20.7,9.3
		c-5.1,3-11.8,3.6-17.7,5.3c-4.9,5.8-12.1,4-18.3,5.3c-3.2,0.2-6.4-1.4-9.7-0.4c-1.2,0.1-2.5,0.1-3.7-0.1c-3.9-1.2-7.9-0.9-11.9-1
		c-8-0.3-15.6-3.9-23.8-2.2c-2.8,0.6-4.1-3-6.2-4.6c-2.6-2-5.7-2.9-8.5-4.5c-2.4-1.1-4.5-2.7-6.7-4.2c-2.7-2.9-6.8-2.3-10-4
		c-4.4-1.7-7.6-4.9-10.4-8.4c-4.9-4.6-9.8-9.1-14.6-13.7c-20.2-19.4-29.7-43.9-34.4-70.7c-2.8-15.6-3.8-31.2-2.3-47
		c1.8-18.4,11.4-33.7,20.2-49.2C191,407.6,194.1,403.5,197,399.3z"/>
	<path class="st34" d="M187.2,182.5c-7,6.1-11.7,13.9-15.2,22.3c-15.9-2.8-31.1-1.4-45,7.7c-2.7,0.7-5.4,1.4-8,2.1
		c-2.6-7.3-2.4-14.7-0.7-22c1-4.5,3.4-7.2,8.9-8.8c9.2-2.6,17.7-7.4,24.9-14.1c2.4-2.3,4.1-4.9,4.2-8.4c0.3-6.5,4.8-8.6,10-7.2
		c4.5,1.2,8.3,1.5,12.5-0.3c5.2-2.3,8.7,3.1,13.8,3.2c7.8,0.1,4.3,6.7,4.4,10.4c0.1,3,4.5,5.5,1.1,8.8c-1.8,1.1-3.7,2.2-5.5,3.3
		C191,181.1,189.2,182.1,187.2,182.5z"/>
	<path class="st35" d="M219.6,592.6c3.8,2.2,7.6,4.3,11.4,6.5c2.8,3.8,3.9,8,4.2,12.7c1,18.1,3.4,36,5.3,54c1.5,14,3.6,28.1,4,42.1
		c0.6,18.7,3.2,37.1,4.9,55.6c1.7,18.2,3.9,36.4,6.8,54.5c0.7,4.3-3,8.2-0.8,12.5c-2.4,2.6-5.4,1.7-8.3,1.5
		c-3.1-11.7-3.1-23.8-4.7-35.6c-3.5-27.2-6.4-54.5-9.5-81.8c-2.1-18.3-4-36.6-6.1-54.9C224.5,637.2,222.1,614.9,219.6,592.6z"/>
	<path class="st36" d="M147,460.6c4.3,8.8,5.8,18.5,7.3,27.9c1.3,8.2,0.2,16.9,0.2,25.4c-0.9,0.9-0.5,2.9-2.2,2.9
		c-1.7,0.1-2.2-1.3-2.4-2.7c-0.5-3.3,0.2-6.6-0.7-9c1.2,16.6,3.9,33.9,5.4,51.4c0.4,5,2.2,9.9,2.3,14.9c0,2.7,2,5.8-1,8.2
		c-1.6-0.3-3.1-0.7-4.7-0.9c-2-0.3-4.4-2.5-5.8-0.2c-1.3,2.1-0.5,4.6,1.8,6.2c1.1,0.8,2.6,2.5,1.8,3.2c-5.6,5-1.7,12.1-4.3,17.7
		c-3.7-10.9-3.9-22.4-6-33.6c-4.1-21.7-8.7-43.5-10.6-65.4c-1.8-20.7-4.7-41.3-5.7-62.1c3.6,0.7,5.9,2.7,6.1,6.4
		c0.2,3.3-2.5,10,4.9,3.3c1.4-1.3,1.8,1.2,2.2,2.2c1.2,2.7,2.2,5.5,5.9,5.8c3.6,1.3,3.2,4.4,3.5,7.3c0.4,4.4-0.1,8.9,1.2,12.2
		c-1.4-4.8-0.8-10.8-1.5-16.7C144.4,463.2,144.7,461.3,147,460.6z"/>
	<path class="st37" d="M70.2,391.5c-1-7-2.1-14.1-3.1-21.1c3.7-0.9,9.3-5.4,6.3,4.5c-0.7,2.2-0.7,7,0.5,10.5
		C74.9,388.5,73.1,390.4,70.2,391.5z"/>
	<path class="st38" d="M247.1,607.2c5.2,1.4,10.3,2.6,13.2,8c1.8,3.3,2.1-2.8,5.1-1.2c5.9,3.1,13.2,1.7,19.3,4.6
		c3.3,2.6,2.3,6.3,2.5,9.6c0.2,3.7-1,7.5,1.2,10.9c3,16.1,2.5,32.4,3.6,48.6c0.8,11.2,1.8,22.3,2,33.5c0.1,3.5,0.7,7-2.8,9.4
		c-7.9-0.2-2.8,7.4-6.7,10.5c-2.5-4.4-1.1-8.9-1.3-13.1c-0.2-3.8-0.3-7.7-3.1-10.5c-2.6-2.6-5.6-6.4-9.3-5c-3.9,1.5-1.7,6-1.9,9.3
		c-1,13.8,0.7,27.5,1.3,41.2c0.6,11.5,2.3,22.9,3.6,34.3c0.9,8.2,0.9,16.6,3.6,26c-5.2-1.6-7.8-5.7-12.1-4.3
		c-4.3-3.9-3.9-9.3-4.3-14.2c-1.4-21-3.1-42-5.7-63c-4-33.1-4.2-66.4-8.3-99.5c-1.1-8.5-1.5-17-2.3-25.5
		C244.6,613.6,244.1,610,247.1,607.2z"/>
	<path class="st39" d="M309.1,619.7c6.6-1,13.1-2.1,19.7-3.1c1.1,13.3-0.2,26.8-2.4,39.7c-2.2,13.3-0.8,26.5-2.1,39.7
		c-2.9,30.2-3.9,60.7-5.5,91c-0.2,2.9-1.5,5-2.8,7.4c-1.2,2.2-3.2,4.6-0.1,7.2c0.8,0.7,1.5,2.9,1.1,3.5c-4.7,6.8-1.3,13.9-1,20.8
		c0.2,5.2-1.9,6.8-6.8,5.7c-2-3.6-2.5-7.5-2.5-11.6c0-51.8-0.1-103.6,0.2-155.3c0.1-12-0.7-24-0.2-36
		C306.9,625.5,306.4,622.2,309.1,619.7z"/>
	<path class="st40" d="M291.3,730.7c1.1-10.6-1.1-21.1-1.6-31.6c-1-20-2.2-40.1-3.3-60.1c-1.7-5.7-0.6-11.4-0.3-17
		c0.1-2.5,1.4-3.1,3.6-3c2.6,0.1,5.3-0.3,7.9,0.4c1.3,0,2.5,0.1,3.8,0.1c6.2,0.1,5.4,4.7,5.4,8.5c0.1,17.9,0.7,35.8,0.4,53.6
		c-0.7,45.7-0.1,91.4-0.3,137.2c0,4,0.1,8-2.2,11.6c-1.8,2.5-4.3,1.6-6.6,1.4c-1.7-1.8-3-4.2-2.7-6.5c1.4-10.1-1.5-20-1.3-30.1
		c0.2-9.9-2.1-20-2.1-30.1c0-2.4-0.5-4.8,1-6.9c-0.1-2.2-0.2-4.3-0.3-6.5c-1.7-5.4,0.6-11.1-1.1-16.5
		C291.4,733.6,291.3,732.1,291.3,730.7z"/>
	<path class="st32" d="M367.2,602c1.7-2,3.3-3.6,3.6,0.8c0.3,3.7-1.3,7.4,0.6,11.2c4.6-5.5-0.9-14.1,6.2-18.6
		c5.7,2.1,4.2,7.1,3.6,10.9c-3.6,24.7-5.2,49.7-7.9,74.5c-3.1,27.8-5.1,55.6-8.2,83.4c-2.3,20.1-3.9,40.2-6.3,60.3
		c-0.3,2.7-0.3,5.4-2.6,7.3c-2.9,0.1-5.8,0.1-8.7,0.2c2.5-30.8,4.8-61.6,7.4-92.4c2.4-27.3,5.2-54.6,7.7-81.8
		C364.3,639.1,365.7,620.6,367.2,602z"/>
	<path class="st32" d="M247.1,607.2c2.8,29.9,7.2,59.8,7.8,89.7c0.5,28,6.5,55.2,7.3,83.1c0.4,13,2.1,26.1,3.2,39.1
		c0.2,1.6,0,3.3,0.5,4.7c1.3,3.4,3.1,6.8-2.3,8.1c-5.4,1.3-6.6-1.9-6.4-6.3c-2.3-4.1-2.9-8.7-3-13.1c-0.7-20.8-4.4-41.3-6.1-61.9
		c-1.7-20.4-3.5-40.9-5.7-61.2c-2.4-23-3.8-46.1-7.7-69c-0.8-4.5-0.1-9.1-0.6-13.6c-0.6-5.9,0.5-6.4,6.8-3.3
		C242.9,604.7,245,606,247.1,607.2z"/>
	<path class="st41" d="M304.6,830.4c0-28,0-56.1,0-84.1c-0.1-40.3-0.2-80.6-0.3-120.9c0-2.4,0.2-4.9-2.9-5.8
		c2.7-2.3,5.2,0.5,7.8,0.3c0.8,36.1,0.5,72.2-0.4,108.4c-0.8,34.5,0.3,69,0.5,103.5C307.7,831.3,306.8,828.5,304.6,830.4z"/>
	<path class="st42" d="M240.8,603.4c-3.7-1.6-6.1-1.6-5.5,3.6c3.5,31.5,7,63,10.2,94.5c2.5,25.2,4.5,50.4,6.9,75.6
		c1.5,16.1,3.2,32.3,4.8,48.4c-1.7,1.3-1.4,3.1-1.7,4.9c-3.5-12.1-3-24.7-4.6-37.1c-3.8-28.9-6.7-57.9-8.7-87
		c-1.9-27.9-6.2-55.6-9-83.4c-0.8-7.9-0.6-16-2.1-23.9C233.7,601.8,239.1,598.5,240.8,603.4z"/>
	<path class="st38" d="M292.9,758c1,11.1,2.3,22.1,3.1,33.2c0.9,13.5,1.3,27,2,40.5c-4.1-0.8-6.5-3.8-5.8-7.2
		c2.1-11-2.8-22,0.7-32.9c-4-10.4-2.7-21.1-1.6-31.7C291.8,759.3,292.3,758.6,292.9,758z"/>
	<path class="st43" d="M334.2,772.9c0.2-7.8,2.9-14.8,0.1-22.1c-0.6-1.5-1.4-6.2,2.8-6.1c2.7,0.1,2.6,3.1,2.3,5.7
		c-0.4,5.2-0.2,10.5-0.5,15.8C338.8,769,339,772.3,334.2,772.9z"/>
	<path class="st44" d="M360.3,645.2c-0.2-10.9-1.7-21.8,1.1-32.6C360.4,623.5,363.4,634.4,360.3,645.2z"/>
	<path class="st45" d="M291.2,759.9c0.5,10.6,1.1,21.2,1.6,31.7c-1.1,0.4-2.6,3.9-3.1-0.3c-0.4-3-0.2-6.1-0.3-9.2
		c-2-2.6-1.6-5.3-0.2-8C290.4,769.4,287.8,764.3,291.2,759.9z"/>
	<path class="st38" d="M286.2,765.3c-2.1-0.6-2.8-2-2.9-3.7c-0.1-1.4,0.3-2.9,2-2.7c1.8,0.2,2.4,1.8,2.5,3.5
		C288,763.9,287.4,764.9,286.2,765.3z"/>
	<path class="st38" d="M289.2,774.1c0.1,2.7,0.1,5.3,0.2,8c-1.4-0.2-3.9,1.4-4.1-0.5C285.1,778.8,285.5,775.4,289.2,774.1z"/>
	<path class="st38" d="M291.5,735c2,5.4,1.3,10.9,1.1,16.5C289.2,746.2,292.3,740.5,291.5,735z"/>
	<path class="st1" d="M135,770.9c-2.6-4.6-1.1-9.6-1.6-14.5c3-10.2,0.2-19.7-2.2-29.6c-4.1-16.8-7.8-33.8-7.5-51.3
		c0-1.9,0-4.2,2.3-4.6c2.5-0.5,3.8,1.4,4.5,3.7c1,3.3,2.1,6.6,3,10c0.8,3.2,2.6,5.6,5.9,5.7c5.2,0.2,6.7,2.6,7.3,7.5
		c0.5,4.1,2.9,7.9,4.5,11.8c1.4,3.4,0.8,6.7-1.9,8.7c-3.3,2.5-4.5-1.2-6.3-2.9c-1.2-1.2-2.5-2.4-4.2-1.9c-2.4,0.7-2.3,2.9-2.1,4.7
		c0.4,3.4,0.9,6.9,1.8,10.2c1.3,5.3,4.1,10.2,0.2,15.9c-1.9,2.8,0.2,6.6,1.7,9.9c3.9,8.6,6.3,17.6,6,27.1
		c-0.2,5.1,0.3,10.1,1.5,15.1c2.5,10.7-0.4,22,4.2,32.5c0.5,1.2,0.1,2.2-1.2,2.4c-0.6,0.1-1.6-0.3-2.1-0.8c-0.5-0.5-1-1.4-1-2.1
		c0.6-11.6-7.4-21.2-6.8-33.2C141.5,787.3,137.2,779,135,770.9z"/>
	<path class="st1" d="M156.3,712.8c3,11,3.1,22.5,4.8,33.7c2.9,19.1,4,38.5,7.4,57.5c1.6,9.1,2,18.4,2.9,27.6
		c-6.7,1.2-11,0.4-8.8-8.2c4-15.4-4-29.1-6.8-43.5c-2.3-11.7-1.2-23.8-3.9-35.5c-0.6-2.5-0.9-5.1-1.4-7.7c-0.5-2.3-1.4-6-0.3-6.9
		C156.1,725.4,154.2,718.5,156.3,712.8z"/>
	<path class="st46" d="M129.8,631.1c6.3,3.3,7.9,7.7,4.9,13.9C132.9,640.1,131.4,635.6,129.8,631.1z"/>
	<path class="st1" d="M153,685.5c2.1,3,1.4,6.4,1.4,9.7C149.9,692.6,151.3,689.1,153,685.5z"/>
	<path class="st47" d="M424.9,831.8c-5,0.1-10.1,0.2-15.1,0.3c-2.3,0-4.3-0.5-4.5-3.2c-0.4-12.6,0.3-25,5.4-36.7
		c1.6-1.4,3.1-0.8,4.5,0.4c0.9,1.4,1.1,2.9,1,3.2c-0.1-4.2-0.5-9.7-0.2-15.1c1.2-4.1-0.1-9.4,5.3-11.5c0.6-0.2,1.2-0.5,1-0.9
		c-5.1-8,2.2-14.5,2.5-21.9c0.2-1.1-1.3,0-0.2-0.2c0.2,0,0.3,0.2,0.1,0.8c-1.2,3.8-1.8,7.8-3.4,11.3c-1.3,2.8-3.2,5.5-6.3,1.4
		c-2.1-5.3,0.2-10.4,0.6-15.7c1.9-27,7.2-53.5,9.9-80.4c1.7-16.7,5-33.3,6.8-50.1c3.8-35.9,9.4-71.5,14-107.3
		c4.3-32.9,8.3-65.9,12.6-98.8c5-38.8,10.5-77.5,14.9-116.3c0.4-3.2,0.9-6.4,1.8-9.4c3-10.3,4-20.8,4.4-31.4
		c0.5-10.7,2.4-21.3,2.7-32c0.1-2.8,1.3-5.2,3.9-6.7c2.7,1.6,5.5,3.3,8.2,4.9c4.1,5.9,2,12.5,1.4,18.6c-1.4,15.7-2.5,31.4-4.8,46
		c2.7-14.1,2.2-29.5,5.4-44.6c0.9-1.2,2.1-1.8,3.3-0.5c7.1,7.5,7.8,9.8,6.3,21.5c2.3-12.9,1.6-21.5-9.4-24.3
		c-0.5-4.2-2.2-8.8,4.2-10.3c3.2,3.2,6.4,6.5,9.6,9.7c0.8,1.5,1.6,3,2.3,4.5c-0.8,29.3-5.3,58.4-7.5,87.6c-1.4,19.8-5.5,39.5-8,59.4
		c-2.4,19-4.4,38.1-6,57.1c-2.4,29.2-5.6,58.3-9.4,87.4c-4.5,34.5-12.8,68.4-15.3,103.3c-1.7,22.7-4.5,45.5-8.3,67.9
		c-4.5,26.2-6,52.8-9.5,79.1c-2.1,15.3-4.3,30.6-6.3,45.9c-0.3,2.3-1.6,4.7-0.1,7c-4.5-0.1-8.9-0.1-13.4-0.2
		C426.9,828.9,426.9,828.9,424.9,831.8z"/>
	<path class="st48" d="M528.9,487.9c0.6,10.2-2,20.1-3.3,30c-5,36.1-10.8,72.2-16.2,108.2c-6.5-0.5-8.7-3.7-8.2-10.2
		c0.4-4.8,1.2-9.4,2.1-14.1c0.5-2.6,2-5.8,1-7.7c-3.6-7.1,0.1-12.4,3.3-18c5-29.2,10.9-58.2,11.9-88c2-4.5,2.6-8.7-2.7-12
		c4.4,1.3,11.9-1.4,8.6,7.8C524.7,485.7,527.3,487,528.9,487.9z"/>
	<path class="st49" d="M533.2,324.4c-6.5-7,0.2-13.2-0.4-19.7c-0.2-2.2,0.4-3.8,2-4.8c3.1-1.9,3.9-3.9,1.5-7.1
		c-1.3-1.7-0.5-3.6,1.2-4.9c1.4-1,3.1-1.2,4.6-0.2c1.9,1.3,1.3,3.2,0.9,5.1c-2.6,10.8-5.1,21.7-7.8,32.5c-1.4,5.6-4.5,11,0.3,16.6
		c1.3,1.5,1.2,4.1-0.9,4.7c-2.1,0.7-3-1.7-3.7-3.4C527.9,336.6,527.2,330.1,533.2,324.4z"/>
	<path class="st50" d="M519.4,488.3c4.1,0.5,2.6,3.3,2.2,5.5c-3,16.7-4.5,33.6-6.8,50.4c-1.5,10.9-4.6,21.5-4.7,32.6
		c0,3.2-2.2,2.3-2.6-0.5c3.3-25.1,5.8-50.2,11-75c0.5-2.3,0.9-4.2-0.9-5.9C514.2,492,517.3,490.3,519.4,488.3z"/>
	<path class="st51" d="M496.1,507.1c-3-2.7-6.2-6.4-5.7-6.7c6.2-3.8,0.3-11.5,5.3-15.2c2.9-2.1,5-2.5,6.1,2.2
		C503.5,494.9,497.5,499.6,496.1,507.1z"/>
	<path class="st52" d="M538.8,246.8c6.8,3.3,3.9-4.3,6.5-5.6c6.6,7.1,6.3,7.8-8.1,19.8C535.6,255.8,540.8,251.6,538.8,246.8
		L538.8,246.8z"/>
	<path class="st53" d="M525.7,412.8c0,3.2-0.2,6.1-3.5,5.6c-6.1-0.8-2.4-6.5-4.3-9.6c-0.9-1.6-0.3-3.5,2.6-3.4
		C526.4,405.8,524.7,410.4,525.7,412.8z"/>
	<path class="st54" d="M453,791.9c-1.1-10.5,1.7-20.5,3.3-30.7C455.3,771.5,456.5,781.9,453,791.9z"/>
	<path class="st55" d="M518.9,304.8c3,6.5,0.5,10.9-2.9,15.1C515,314.8,513.9,309.7,518.9,304.8z"/>
	<path class="st52" d="M538.7,246.9c-5.5,0.7-10.6,5.4-16.1,1.4C526.6,244.2,534.4,243.3,538.7,246.9
		C538.8,246.8,538.7,246.9,538.7,246.9z"/>
	<path class="st49" d="M528.9,361.8c-2-0.9-2.7-2.6-2.8-4.5c-0.1-2.6,1.8-3.7,4.2-3.5c1.6,0.2,3.2,1.1,2.2,3.2
		C531.6,358.8,531.3,361.1,528.9,361.8z"/>
	<path class="st52" d="M539.4,239.3c-3.2,3.5-5.9,3.1-9.2-1C534,238.7,536.7,239,539.4,239.3z"/>
	<path class="st56" d="M385.4,380.3c-12.2-7.2-23.1-16.5-36.6-21.6c-1.3-0.5-2.5-0.9-3.8-1.3c-2.9-3.7-2.8-7.9-2.5-12.2
		c3.4-49.2,6.8-98.5,9.9-147.8c0.3-5.5,0.2-11.3,3.5-16.3c3.7-4,9-4.7,13.7-6.8c8-1.2,15.6-6,24.2-3.2c6.2,4.1,6.4-1.3,7.8-4.8
		c2.8,1.4,3.5,4.1,4.4,6.6c0.9,2.2,1.8,4.4,1.3,6.9c-4.7,22.8-4.9,46-7.1,69.1c-3.8,40.9-6.3,81.9-10,122.8
		C390,375.4,389.7,379.1,385.4,380.3z"/>
	<path class="st57" d="M268.6,354.3c-12.9,3.2-24.9,8.5-36.5,14.8c-2.2,1.2-4,2.6-5.6,4.5c-2.1-33-4.9-66-8.1-98.9
		c-2.3-23.6-3.4-47.4-5.6-71c-0.8-8.3,0.4-16.9-3.5-24.9c-1.3-2.6,3.2-4.2,2-7.2c1.2-2.2,3.5-2.9,5.5-2.4c7.4,2,15.6,0.7,22.3,5.4
		c4.3,3.2,9.4,4.2,14.7,4.5c2.5,0.6,4.1,2.1,5.2,4.3c4.4,14.8,2.8,30.2,4.4,45.3c2.6,23.1,3.4,46.3,4.7,69.5c1,16.5,2.3,33,2.8,49.5
		C271.1,350.2,270.5,352.5,268.6,354.3z"/>
	<path class="st58" d="M358.6,181c-4.2,7.3-3.3,15.6-3.5,23.4c-0.8,28.8-4.6,57.5-5.4,86.3c-0.6,22.3-3.1,44.5-4.8,66.7
		c-11.4-2.2-22.4-6.6-34.2-6.6c-3.9-1.8-4-5.4-4-8.9c0-31.8-0.8-63.7,0.2-95.5c0.8-25.6-1.5-51.1-0.3-76.7c0.2-3.5-0.4-7,0.8-10.3
		c1.7-3,4.6-3.7,7.6-3.5c12.4,0.9,23.9,3.8,31.4,14.9c1.2,0.7,2.3,1.5,3.5,2.2C354.4,174.2,358.7,175.2,358.6,181z"/>
	<path class="st9" d="M346.6,170.9c-1.3-0.2-3.1,0-3.7-0.8c-9.1-10-21.1-11.5-33.6-11.7c-1,0.8-2,1.7-3.2,2.1
		c-8.3,0.4-16.3,2.5-24.5,3.7c-1.8,0.7-3.2-3.5-5.2-0.4c-0.1,0.7-0.3,1.3-0.6,1.9c-0.9,1.6-2.1,2.9-3.5,4c-4.2,2.2-7.7,6.4-13.3,5.1
		c-8.2,1.6-8.4-2.7-6.2-8.5c1-2.6,1.8-4.6-0.5-7.3c-5.4-6.5-4.5-17.4,1.5-23.3c0.6-0.6,1.3-1.6,1.8-1.5c9.3,2,11.6-7.1,17.4-10.6
		c5.5-3.3,11.6-4.7,17.9-3.9c4.6,0.6,8.7,2.5,10.1,7.8c1.4,5,3.2,8,9.5,4.1c8.3-5.2,17.9-0.3,20.1,9.6c0.6,2.9,1.7,5,4.6,5.9
		C349.5,151.6,352.3,157.5,346.6,170.9z"/>
	<path class="st59" d="M486.6,211.5c-2.4,12.8-2.8,25.8-4.1,38.7c-1.1,10.2-0.9,20.5-4.1,30.5c-8,1.9-9.4,1.1-10.5-6.1
		c-0.2-1.1-0.1-2.2-0.3-3.2c-0.6-2.5-1.2-7.4-3.1-6.3c-3.6,1.9-10.1-0.8-10.9,5.9c-0.2,1.9-0.3,3.9-1.5,5.4c-2.3,3-5.4,3.6-6.7-0.3
		c-1.9-5.6-5.1-11.2-1.8-17.7c2.7-5.2,1.6-10.9-2.5-14.9c-4-3.9-5.3-8.5-6.3-13.5c0.6-6.7-1.6-13.8,2.2-20.1c1.6-2.7,3.1-5.6,6.3-7
		c14.2-6.7,26.9-3,38.9,5.4c0.9,0,1.8,0.1,2.7,0.1C485.4,209.3,486,210.4,486.6,211.5z"/>
	<path class="st9" d="M259.2,81.2c-3.6,6.6,0.2,8.6,5.8,11.5c8.1,4.1,9.9,12.8,11.2,21c0.1,0.9-0.5,2.6-1.1,2.8
		c-10.5,3.5-16,14.9-27.4,17.1c-1.4,0.3-2.7,0.6-3.7-0.5c-4.2-4.8-10.1-6-16-6.8c-3-0.4-3.4-2.2-3.3-4.4c0.3-10.2-2.4-19.3-8.4-27.8
		c-3.7-5.4-0.4-10.6,3.4-14.4c4-4.1,7.5-10.9,15.5-7.1c1.1,0.5,1.4,0.5,2.4-0.4c5.5-5,17.7-3,20.8,3.5
		C259,77.3,258.9,79.3,259.2,81.2z"/>
	<path class="st60" d="M353.2,137.5c-2.3,2.8-0.7,7-3.7,9.7c-6-4.1-12.8-7.4-15.7-14.9c-0.7-1.7-3.1-2.8-4.9-4
		c-3.4-2.3-9.3-2.5-9-7.8c0.5-8.2,1.8-16.8,10.4-21c3.3-1.6,5.4-4.4,8.6-5.8c1.3-0.6,1.7-1.6,1.5-3.2c-1-9.2,3.2-14.9,12.5-15.7
		c11.5-1,20,5.3,27.5,12.7c2.3,2.3,3.1,5.5-0.1,8.5c-6.5,6.2-9.8,14.1-10.2,22.8c-0.3,8.1-5.9,10.5-12.1,12.6c-4.2,0-4.3-3-4.6-6.1
		C351.1,129.4,355.4,133.6,353.2,137.5z"/>
	<path class="st26" d="M162.8,90.9c1.8-0.2,3.7-0.2,5.5-0.7c1.6-0.5,2.8-1.8,2.4-3.6c-0.5-2-2.1-1-3.3-0.8c-2.7,0.5-4.8-0.3-6.2-2.6
		c6.6-1,12.7-4.8,19.8-3.7c6.6,1,13,1.9,14.4,10.2c0.5,2.9,2.5,3.7,5.5,3.1c7.7-1.6,11.3,3.2,14.4,9c2.7,5.2,3.2,10.7,2.8,16.4
		c-0.6,9.3-6.9,13.9-16.4,12.1c-15.1-2.9-24.3,1.5-31.2,14.7c-3.1-9.9-3.6-20.4-7.4-30.2c-1.8-4.6,3-8.6,1.9-13.6
		C164,97.7,164.2,94.1,162.8,90.9z"/>
	<path class="st9" d="M425,142.2c-2.6-7.9-9-11-16.4-12.3c-4.3-0.7-7.3-1.8-6.1-8.1c-7,9.4-20.7,11-25.5,3.1
		c-3.6-6-1.4-13.9,2.8-18.9c8.7-10.3,22.3-14.2,33.6-21c8.3-5,16.7,2.1,19.5,12.5c0.3,1,0.6,2.7,1.1,2.8c10.6,1.8,6.1,11.7,9.6,17.3
		c1.3,2.1,0.6,4.3-2,6c-5.8,3.8-9.7,9.5-13.4,15.2C428.6,141.5,427.6,142.7,425,142.2z"/>
	<path class="st26" d="M351.7,45.5c-0.1,4.5,2.4,6.8,6.5,7.7c4.2,0.9,4.9-2.5,5.9-5.1c1.1-3,2.2-3.7,5.1-1.9
		c3.8,2.3,4.5-0.8,5.1-3.5c1.4-3.1,2.8-5.8,6.9-2.5c1.6,1.3,3.9,3.4,6.2,0.6c3.4-4.2,4.7-0.3,6.5,1.5c1.3,3.7,7.1,0.7,7.2,3.3
		c0.5,8,8.4,12.4,9.4,19.8c0.5,3.6-2.2,6.5-3.6,9.6c0,1.6,0.1,3.2,0.1,4.8c-6.2,2.3-7.9,10.8-14.9,11.6c-8.4,1-6.5-9.3-12.4-12.1
		c-8.2-3.9-15.1-10.1-25.2-9.8c-11.8,0.4-13.9-2.7-11.3-14.5C344.3,50.4,345.5,45.7,351.7,45.5z"/>
	<path class="st26" d="M358.6,181c-2.8-2.6-5.7-5.2-8.5-7.9c2.4-2.1,4.5-4.4,5.8-7.3c3.5,1.8,1,6.1,6.2,8.9
		c-4.6-7.5-0.4-14.7-5.6-21c-3.5-4.3,0.3-13.8,7.2-19.4c5-4.1,10.7-5.5,15.9-0.7c3.2,2.9,6.4,2.6,9.8,1.7c5.9-1.5,11.8-1.5,17.7-1.1
		c6.4,0.4,9.6,4.7,11,10.1c1.1,4.3,0.3,7.5-5.8,7.9c-7.1,0.5-15,1-17.1,10.3c-0.5,2-2.9,0.2-4.3,0.7c-6.2,4.9-12.2,10-19.9,12.6
		C367.6,179.3,362.8,179.5,358.6,181z"/>
	<path class="st61" d="M482,208.2c-6-2.7-14.1-0.3-18.4-7.4c-0.9-1.6-2.6-0.8-3.4,0.1c-4.4,4.8-11.1,0.7-15.8,4.2
		c-6.1-0.6-9.7-4-11.8-9.7c-1.6-4.5-4.3-8.5-8.3-11.4c-1.5-1.3-2.4-3.5-4.8-3.7c-6.5-0.2-11.3-4-16.3-7.3c-1.7-1.9-1.1-4.2-1.5-6.4
		c0-5.8,2.4-9.6,8.7-10.6c3-0.4,6.6-1.5,7.4,2.2c0.7,3.1,0.2,7.2-5.1,6.8c-0.9-0.1-1.9,0.5-2.7,1.3c4.1,1.4,7.9,5.1,11.2-2
		c2-4.1,8.4-2.6,12.6-4.9c5.5-3,7.4,1.4,10,6.3c7.1,13.6,19,21.3,35,21.9c1.9,0.1,3.7,0.2,6.4,0.4c-3.1,4.5,0.2,12.7-10.6,12
		C479.1,201.9,479.9,205.6,482,208.2z"/>
	<path class="st62" d="M203.6,158.2c-6-7.8-15.3-8.6-23.9-10.3c-4.5-0.9-4.2-1.7-2.4-4.6c5.2-8.5,11.2-11.1,22.8-8.9
		c4.9,1,9.1,1.4,13.9-1c3.6-1.9,8.3-2.1,12.6-2.2c5.1-0.1,11.1-0.2,13.3,5.4c2.3,5.9,1.7,12.1-3.5,16.9c-1.7,1.6-4.6,2.7-3.2,5.7
		c1.3,2.9,3.8,0.4,5.7,0.6c4.3,0.4,5.5,2.8,5.1,6.5c-0.2,1.7-2.3,3.3-0.1,5c-1.7,4.3-6.4,3-8.3,2.2c-8.4-3.9-17.4-3-26.1-4.3
		c-1.1-0.2-2-0.6-3-1c-0.4-0.1-0.9-0.2-1.3-0.3C202.2,165.1,206.7,161.1,203.6,158.2z"/>
	<path class="st63" d="M117.2,218c3.5,32.5,6.9,65,10.4,97.5c-4.7-7.6-6-16.5-6.6-24.2c-0.8-9.3-1.6-18.8-2.2-28.2
		c-0.8-12.2-2.3-24.4-3.3-36.6c-0.2-2.2-0.9-3.6-3.2-3.9c0-0.5,0-0.9,0-1.4C113.8,220.1,115.5,219.1,117.2,218z"/>
	<path class="st64" d="M371,176c6.9-3.8,10.5-12.6,19.9-12.6c0,2.9,4,4.5,3,7.8C386.3,172.8,378.7,174.4,371,176z"/>
	<path class="st65" d="M206.4,168.3c9.9-0.7,19.8-1.3,29,3.8c2.5,1.4,5.7,1.5,8.4-0.7c1.4,5.3-3.1,2.2-4.7,3.2
		c-5.5,1.5-10.6-1.4-15.9-2c-3.9-0.4-7.8-1.5-11.9-1.1c-1.1-0.1-2.1-0.2-3.2-0.3C207.5,170.2,207,169.2,206.4,168.3z"/>
	<path class="st66" d="M425,142.2c1.1-1.1,2.1-2.1,3.2-3.2c0.9,1,2,1.8,2.7,2.9c6.2,10.2,6.2,10.2-5.9,13.7
		C425,151,425,146.6,425,142.2z"/>
	<path class="st67" d="M258.9,174.7c4.3-2.3,8.6-4.6,12.9-6.9c2.2,0,4.4,0,5.4,2.5c0.7,1.7-0.1,3.6-1.5,4.1
		c-5.3,1.7-9.3,5.4-13.8,8.1c-1.3,0.8-3.1,0.9-4.6,0.1c-2.2-0.1-3.2-1.5-3.4-3.5C255.5,177.6,257.2,176.2,258.9,174.7z"/>
	<path class="st68" d="M353.2,137.5c-3.5-5.4-3.8-10.7-0.4-16.3c0.7-1,0.5-2.9,2.3-2.5c1.9,0.4,2.6,1.8,1.6,3.5
		c-2.1,3.5-1.5,6.5,1.4,9.2C356.7,133.6,355.9,136.3,353.2,137.5z"/>
	<path class="st19" d="M493.1,98.7c0.6,4.5,9.4,5.8,4.3,13.1c-3.3-5.7-8.3-9-14.1-11.1C486.7,100.4,488.9,94.8,493.1,98.7z"/>
	<path class="st26" d="M419.9,79.5c1.2-4.3,2.3-8.5,3.5-13c7.9,6.5,7.5,8.9-1.9,13.1c0,0-0.8,0-0.8,0L419.9,79.5z"/>
	<path class="st65" d="M203.6,158.2c1.7-0.3,3.1-2.3,5.4-0.4c-1.9,3.1-5.3,5.8-3.9,10.1C202,165.1,204,161.5,203.6,158.2z"/>
	<path class="st26" d="M437.6,55.5c-2.2-0.1-4.4-0.2-4.5-3.1c-0.1-2.9,2-3.2,4.2-3.3C438.2,51.2,438.1,53.4,437.6,55.5z"/>
	<path class="st26" d="M434.6,82.9c-1.7-1.7-2.6-3.9-0.4-5.4c1.7-1.2,2.7,0.9,3.6,2.2C437.1,81.1,436.3,82.4,434.6,82.9z"/>
	<path class="st69" d="M138.8,102.4c-6,4.7-11.3,2.4-16.1,2.6c-10.9,0.3-13.6,2.6-12.8,13.1c0.2,2.8-0.7,3.3-2.9,3.4
		c-2.4,0.1-5,0.4-7.3-0.2c-4.1-1.2-7.1-0.8-10,2.7c-3.4,4,0.2,6.5,2.8,10.9c-5.6-2.6-10.4-3.8-9.2-9.3c1.1-5.1,4.1-9.4,10.5-8.9
		c4.9,0.4,7.9-0.5,9.9-6.2c2.5-6.9,8.6-10.8,16.8-9.8C126,101.4,131.6,101.7,138.8,102.4z"/>
	<path class="st70" d="M33.9,215.8c-7.6-6.4-8.1-13-2.8-17.7c3.6-3.2,6.3-6.5,8.7-10.9c3.2-5.9,10-8.4,17.9-7.6
		c-1.6,3.9-5.3,3.7-7.9,5c-3.2,1.6-6.9,2.6-5.4,7.3c1,3.1-1.4,3.8-3.1,4.7C34,200.3,30.3,205.6,33.9,215.8z"/>
	<path class="st71" d="M504.7,123.7c-4.4-0.3-7.6-0.9-10.7-0.6c-4.1,0.4-9.8,0.5-5.5,7.3c1.6,2.5-0.3,3.1-2.1,4.1
		c-8.5,4.6-9.7,17.7-1.8,23.8c-5.9,3.5-10.2,0.1-13.4-3.3c-4.4-4.6-3.6-10.5-0.4-15.5c3-4.5,7-8,9-13.7
		C482.2,118.9,497.5,117.8,504.7,123.7z"/>
	<path class="st72" d="M460.5,149.2c-2-6.4-2-6.4-0.3-12.3C462.8,141.5,462.8,141.5,460.5,149.2z"/>
	<path class="st73" d="M312.4,25c3.9,4.4,8.1,7.8,14.5,5.1c1,2.1,5,2.8,3.1,6.4c-11-6.2-13.8-5.2-19.1,7.1c-0.5,1.1-0.9,1.8-2,2.1
		c-8.1,2.8-9.4,3.6-12.8,7.9c-2.5-4.2-0.2-6.9,1.8-10C302.1,37,310.5,33.4,312.4,25z"/>
	<path class="st74" d="M294.1,73.2c8.7-0.6,12.7,5.9,17.3,11.3c0.9,1,1.2,2.6,0.1,3.6c-1.3,1.2-2.7,0.1-3.4-0.8
		c-2-2.7-6-3.4-7.4-5.6c-3.3-5.4-7.5-3.9-11.9-3c-2,0.4-4.4,2.3-5.3-0.9c-0.8-3,2.2-3.1,4.2-3.6C289.8,73.7,292,73.6,294.1,73.2z"/>
	<path class="st75" d="M511.1,211.5c0.9-4.8,1.7-10.4,6.4-14.3c1.7-1.5,2.9-2.9,3.1-5.3c0.6-8.1,7.6-10.6,13.5-11.6
		c6.4-1.1,13.5,0.5,18.5,5.8c0.9,0.9,2,2.2,0.3,3.3c-1.4,0.9-2.4-0.2-3.4-1.2c-4.8-4.7-10.8-5-16.6-3.5c-3.4,0.9-8.9,2.7-3.3,8.1
		c4.1,4-0.4,4.3-2.5,4.8c-6.6,1.6-9.1,6.2-9.6,12.3c-0.3,4.6-0.9,9.5,6.1,9.8c1.3,0.1,2.7,0.9,2.3,2.6c-0.3,1.5-1.7,1.8-3.2,1.9
		C515.4,224.3,510.8,219.7,511.1,211.5z"/>
	<path class="st76" d="M501.2,222.9c-3.3,3-3,7-3,10.8c0.4,0.4,0.6,0.8,0.4,1.2c-0.1,0.4-0.3,0.6-0.4,0.6c-2,17.2-3.1,34.6-7.6,51.5
		c1.1-23.6,4.2-47.1,4.2-70.7C496.9,218.5,499.1,220.7,501.2,222.9z"/>
	<path class="st69" d="M457.7,53.4c4.4-4.4,9.4-3.3,14.5-1.7c4,1.3,5.7,4,4.1,8.1c-1.5,3.7,2,4.5,3.7,6.2c5.7,5.9,4.2,14.2-3.4,17.9
		c-1.9-1.5-0.3-2.8,0.2-4.2c3.4-8.2,2.3-10.3-6.6-11.2c-3.6-0.4-6.2-1.1-3.3-5.2c1.6-2.3,5.1-4.3,2.9-7.5c-2.2-3.2-5.9-1.5-9-0.9
		C459.7,55.1,458.7,55,457.7,53.4z"/>
	<path class="st77" d="M406.9,75.1c-3.3-2.3-0.2-4.2,0.6-6.1c2.6-6.7,1.3-8.8-5.9-9.4c-2.4-0.2-6.1-0.4-2.8-3.8
		c2.3-2.4,4.3-4.5,2.5-7.4c-2-3.3-5.5-2.7-8.8-1.7c-0.7,0.2-1.5,0.2-2.7,0.3c-0.6-3.5,2-3.9,4.1-4.7c7.2-0.2,12.8,1.7,13.2,10.1
		c0.1,2.4,2,3.5,3.5,5C416.4,63.6,414.8,71.3,406.9,75.1z"/>
	<path class="st78" d="M388.4,27.8c-1.5,3.1,1.3,7.5-4.8,10.3c1.1-4.2,1.9-7.5,2.7-10.8C387,27.5,387.7,27.7,388.4,27.8z"/>
	<path class="st79" d="M416,34.4c-2.2,0-4.4,2.8-5.9-0.7c-0.3-0.7,0.3-2.5,0.9-2.7C413.8,29.8,414.8,32,416,34.4z"/>
	<path class="st80" d="M213.7,40.4c-2.8,1.5-4.7-0.6-6.5-1.9c-4.5-3.4-9.1-2-11.4,1.5c-4.4,6.6-11.5,11.7-12.5,20.6
		c-4.6-6.4,0-18.6,9.2-25.3C199.2,30.4,208.1,32.5,213.7,40.4z"/>
	<path class="st81" d="M436.7,230.8c1.2,6.2,6.5,10,9.4,15.2c1.7,3.1,2.7,6.9,1.2,9.1c-5.1,7.8-0.7,14.6,0.9,22.3
		c4.3-2.7,1.7-7.1,3.1-10.1c1.2-2.7,1.1-8.2,6.4-3.3c1.8,1.7,3,1.7,3.8-1.2c1.6-6,3.9-3.2,6-0.2c1.6,2.2,3.2,4.6,2.8,7.3
		c-1,6.4,0.9,10.4,8.1,10.6c-6.9,52.3-14.2,104.5-20.6,156.8c-4.7,38.5-9.9,76.9-14.6,115.4c-1.3,11.1-3.7,21.9-5.1,32.9
		c-2,15.5-3.2,31.1-5.1,46.6c-2.2,17.9-5.1,35.7-7.2,53.6c-2.9,25.1-8,50-9.1,75.4c1.8,10.7-0.3,20.9-4.8,30.6
		c-1.6,10.9-3.2,21.9-4.8,32.8c-0.2,1.6-0.2,3.2-1.8,4.2c-12.4,2.3-24.9,4.1-37.6,2.9c-1.2-1.2-2.3-2.5-2.2-4.1
		c0.7-12.9,0.3-26.1,5-38.5c3.5-1.8,4.5,1.2,6,3.1c0.5,3.6,1.7,6.3,6.2,5.3c0.7-0.1,1.5-0.1,2.2-0.1c6.8-0.8,11.8-3.6,12.6-11.1
		c0.2-2.1,0.7-4.6,2.7-5.7c6.7-3.6,3-6.3-0.5-9.4c-6.2-5.6-6.1-6.3,1.2-10.5c1.8-1,3-2.3,3.4-4.2c1-4.2,3.2-7.9,5.2-11.7
		c2.3-4.3,1.8-8.9-0.2-13.2c-1.7-3.7-8.7-4-10.9-0.5c-1.3,2,1.6,2.3,2.3,3.6c0.4,0.6,0.7,1.3,0.8,2.1c-1.5,9.1-10.2,10.9-16.3,15.1
		c-2.9,2-5-2.1-6-4.8c-1.1-2.9-0.6-6.3-3.3-8.7c-1.4-4-0.1-8,0.2-11.9c2-22.7,6.2-45.1,7.2-67.8c0.1-2.4,0.6-4.8,1.4-7.1
		c5.5-6.4,2.8-14.9,5.7-21.8c2.6-6.4,1.6-11.8-0.5-17.6c-0.7-11.2-0.6-22.2,5.4-32.3c8.4-11.1,17-22,25.2-33.2
		c8.8-12,12.2-25.5,13.9-39.4c3.8-33.1-2.5-64.4-19.4-93.5c-0.9-1.1-0.7-2.3-0.5-3.5c-0.4-5.9,0.3-11.8,0-17.6
		c5.4-38.3,8.1-76.8,13.8-115.1c1.7-11.2,2.5-22.7,3.3-34.2C431.9,238.9,431.7,233.8,436.7,230.8z"/>
	<path class="st82" d="M387.6,650.2c-2.2,20.2-4.4,40.5-6.7,60.7c-1.1,9.7-2.2,19.5-3.3,29.2c3.3,9.1-2.2,17.9-0.8,26.9
		c0.5,7.1-1.7,13.9-3.1,20.7c-0.3,0.3-0.7,0.6-1.1,0.9c-3.1,14.2-3.7,28.7-5.1,43.2c-2.7,0.1-5.4,0.1-8.1,0.2
		c-3.9-9.3,0.3-18.5,0.9-27.6c1.3-20.7,3.7-41.4,6-62c2.8-24.3,4.5-48.8,7.4-73.1c1.7-14,2.8-28.1,4.1-42.1
		c1-11.6,1.9-23.3,4.5-34.7c4.3-4.1,8.6-8.2,12.9-12.3c-0.8,10.9-3.8,21.5-3.2,32.5C393.3,625.4,388.6,637.6,387.6,650.2z"/>
	<path class="st83" d="M382.4,592.4c0.5,21.4-4,42.4-5.6,63.7c-1.4,19.1-3.7,38.2-5.7,57.3c-2,19.6-4.3,39.2-6.2,58.8
		c-2,19.9-3.6,39.8-5.4,59.8c-1.1-0.1-2.1-0.1-3.2-0.2c1.3-16.2,2.5-32.3,4.4-48.4c1.4-12.1,2.6-24.4,3.8-36.6
		c2.6-26.2,5.2-52.4,7.8-78.7c1.8-17.7,3.7-35.5,5.1-53.2c0.5-6.5,4.2-13,0.2-19.5C379.3,594.3,380.8,593.4,382.4,592.4z"/>
	<path class="st84" d="M424.9,831.8c0.8-3.4,1.6-6.8,2.7-11.4c3,4.3-0.7,8.2,1.8,11.3C427.8,831.7,426.3,831.7,424.9,831.8z"/>
	<path class="st85" d="M155.8,579.6c-1.8-14.7-3.7-29.4-5.4-44.1c-1.5-13.8-2.8-27.6-4.1-41.4c0.8-0.1,1.5-0.2,2.3-0.3
		c1,6.3,2.2,12.6,2.7,18.9c0.3,3.8,1.6,2.2,3.1,1.1c-2.8,21.5,2.4,42.4,4.5,63.5c1.6,16.4,3.4,32.9,5.4,49.3
		c1.3,11.1,3,22.2,4.5,33.2c0.5,3.4,0.8,6.9-0.2,10.2c-0.7,0.1-1.5,0.2-2.2,0.2C162.9,640.1,159.4,609.9,155.8,579.6z"/>
	<path class="st86" d="M147,460.6c-1.4,9.4,0.3,18.7-0.7,28.2c-1.6-8.9-3.3-17.7-4.9-26.6c1.5-14-2.9-27.5-4-41.2
		c-1.7-20.2-5-40.4-7-60.6c-1-10-3.7-19.8-3.1-31c4.5,3.5,3.2,8,3.7,11.4c4.1,32.4,7.7,64.8,11.4,97.3
		C143.2,445.7,144.2,453.3,147,460.6z"/>
	<path class="st41" d="M183.8,816.7c-5.6-47.4-11.1-94.8-16.7-142.2c1-0.1,2.1-0.2,3.1-0.4c5.6,47.4,11.2,94.9,16.8,142.3
		C185.9,816.6,184.9,816.7,183.8,816.7z"/>
	<path class="st87" d="M187.2,182.5c1.3-1.7,3.2-2.5,5.2-3c4.7,12.9,3.1,26.6,4.3,39.9c1.8,21.2,3.7,42.3,6.5,63.4
		c0.4,3.1,0.9,6.4-0.7,9.7c-3.4-1-2.2-3.9-2.3-5.8c-1.9-27-4.9-53.9-7.9-80.8C191.4,197.8,191,189.9,187.2,182.5z"/>
	<path class="st88" d="M214.8,382.2c-1.5,1.1-3,2.1-4.5,3.2c-2.9-29.4-5.9-58.8-8.8-88.2c5.1,6.8,4,14.7,5,22.1
		c2.4,18.5,3.6,37.1,5.3,55.7C212,377.7,212.6,380.3,214.8,382.2z"/>
	<path class="st89" d="M257.2,182.6c1.1-3.4,10.3,0.2,6.5-7.3c2.3-0.2,4.6-0.3,6.9-0.6c2.1-0.3,4.6-0.9,5.2-2.9c0.9-3-3.4-1.7-4-3.8
		c1-1,2-2,3.1-2.9c1-1.9,3,0.1,4.2-1c0-0.5,0.3-0.9,0.7-1.2c8.6-2.5,17-5.7,26.2-4.3c2.2,11.2,1.5,22.5,1.6,33.8
		c0.3,50.5,0.1,101-0.2,151.5c0,2.2,0.2,4.3-1.5,6c-5.8,4.4-12.3,0.2-18.5,1.4c-6.2,1.2-12.5,1.8-18.7,3.4c-0.6-18.2-2-36.3-3-54.5
		c-2-35.4-5-70.8-7.2-106.2C258.2,190,257.6,186.3,257.2,182.6z"/>
	<path class="st90" d="M436.7,230.8c-4.5,38.6-8.7,77.2-13.7,115.7c-2.1,16.1-2.3,32.4-6.2,48.2c-3.4,2.4-4,5.3-2.2,9
		c1.1,2.1,1.9,4.4,0.8,6.9c-0.1,1.1-0.3,2.2-0.4,3.4c-3.7-6.3-10.7-10.2-13-17.5c-1.1-10.7,1.1-21.1,2.2-31.6
		c1.5-13.8,3.1-27.5,4.2-41.3c0.5-6.1,1.9-12.1,1.8-18.2c2.1-10.4,1.1-21,2.8-31.5c1.7-10.6,2.5-21.4,3.5-32.2
		c0.4-3.9,1.4-7,4.8-9.7c-5.4-1.5-6.2,3.3-5.8,4.6c1.4,3.9-1,7.6-0.5,10.5c1.2,6.7-1.9,12.6-1.8,18.7c0.1,4.6,0.1,8.3-3.6,11.5
		c-2.6,2.2-0.6,4,0.6,6.2c3.8,6.9,1.1,14.5-5.3,15.8c0.9,2.6,4.7,2.8,5,6c-2.4,24.2-4,48.5-7.7,72.6c-0.5,3.2-0.1,6.4-0.4,9.5
		c-0.2,2.5,0.7,5.6-3.4,6.1c-4.7-4.1-10.3-7.3-13.2-13.2c2.9-11.1,3.1-22.5,4.1-33.9c3.1-36.7,5.9-73.3,8.8-110
		c1.3-16.4,2.8-32.9,3.4-49.3c0.2-4.8,6.1-9.1,1.4-14.3c6.9-1.4,11.3,6.1,18.1,4.9c3.5,5.4-0.6,10.6-0.7,15.9c0,1.5-0.8,3-0.7,3.9
		c3.2-4-1.4-11.2,5.1-14.9c5.5,0.5,6.9,4.8,8.7,9c2.3,5.4,5.9,9.8,10.7,13.3c-4.3,4.1-8.4,7.8-6.6,14.9
		C438.6,223.2,437.1,227.1,436.7,230.8z"/>
	<path class="st91" d="M345.1,367.3c4.9-0.7,8.9,1.4,12.7,3.9c9.9,6.6,20.9,11.8,27.9,22c1.8,2.2,2.3,4.8,2,7.6
		c-1.6,16.5-2.4,33.1-4.6,49.5c-1.6,3.6-2.8,7.3-1.1,11.3c-0.8,3.4,0.5,7.1-1.8,10.2c-6.6,3.6-11.3-0.2-15.6-4.3
		c-5.1-4.8-15.1-4.2-18.9,1.4c-0.5,0.7-1.1,1.5-0.7,2.2c3.5,6.5,2.2,15.2,7.7,20.5c5.5,5.3,9,11.5,10.6,18.4
		c1.5,6.1,3.6,10.4,10.5,11c1.1,0.1,1.6,1.3,2.2,2.2c1.2,13.4-1.4,26.5-2.6,39.7c-0.9,10,0,20.3-4.1,29.9
		c-12.5,7.7-25.5,14.3-40.2,17.1c-3.7-7.1-2.1-14.7-1.6-22c1.1-16.2,2.9-32.3,3-48.6c0-2.1,0.3-4.3,1.1-6.3c1.9-4.3,5.9-3.8,9.6-4.3
		c9.1-1.4,10.4-3.7,7.4-12.1c-2-5.4-4.7-9.8-10.5-12.3c-7-2.9-4.6-9.3-4.5-14.7c1.7-9.9,0-20.1,3.1-29.8c9.2-6.2,8-14.5,4.6-23.1
		c-2.2-5.6-0.6-9.5,4.5-13c12.5-8.5,12.7-19.2,0.8-28.6c-1.9-1.5-4-2.8-5-5.2C340.4,382.2,337.7,374,345.1,367.3z"/>
	<path class="st92" d="M284.7,611.5c-13.6-2.4-26.7-6.2-38.9-12.7c-4.9-13.7-5.2-28-5-42.2c1-2.3,3.1-3.5,5-5
		c7.4-6.1,6.9-10.7-1.7-14.5c-1.7-0.8-3.5-1.3-4.7-3c-3.2-5.6-3.2-11.8-3-18c0.1-2.7,0.6-5.3-0.6-7.9c-0.9-3-1.4-6-1.3-9.1
		c1.7-5.8-3.2-11.7,0.5-17.5c2.3-2.6,5.3-2,8.3-2.1c6.4-0.1,9.4-3.6,8.7-9.7c-0.2-2.1-0.5-4.3-1.2-6.3c-2.5-7.2-1.1-12.6,5.4-17.4
		c6-4.4,7.3-11.9,4.6-18.1c-2.9-6.6-8.3-9.4-15.5-9.8c-5.6-0.3-11.5,1.4-16.5-2.5c-3-11.3-6-22.6-1-34.1
		c11.4-8.1,22.5-16.6,37.6-16.1c1,0,2.1-1.8,3.2-2.8c4.4,3.4,4.4,8.4,4.5,13.2c0.1,10.7,0.6,21.3,1.7,31.9
		c-2.9,9.8,0.7,20.2-2.9,29.9c-0.9,2.6,0.2,5.2,1.8,7.5c2.9,4.3,4.5,9.1,4.5,14.3c-1.5,4.3,0.2,8.4,0.7,12.5
		c0.5,4.5,1.3,8.9-0.7,13.3c-2.2,3.5-6,3.1-9.4,3.6c-11,1.4-17.2,8.9-16.2,19.9c0.3,3.2,0.7,6.4,0.2,9.6c-0.8,5.2,0.9,9.4,4.4,13.2
		c1.5,1.6,3,3.2,3.7,5.2c2.4,6.4,6.9,9.1,13.8,8.6c3.2-0.3,6.6-0.2,8.5,3.3c1.4,13.1,3.8,26.2,3.1,39.4
		C285.9,595.9,288.7,604,284.7,611.5z"/>
	<path class="st93" d="M217.9,581.1c-11.1-5.5-16.7-16.2-22.2-25.9c-18.8-32.9-25.2-68.4-16.7-105.6c3.2-13.8,11-25.8,19.2-37.4
		c3.6,1.5,4.3,4.7,4.5,7.9c1.9,20.9,4.2,41.8,7.6,62.6c0.9,5.5,0.9,11.1,0.8,16.7c-0.8,8.5-8.1,14.3-9.7,22.6
		c-0.6,2.8-2,5.5-2.3,8.5c-0.9,7.8-0.2,7.6,5.3,13c4.2,4,9.3,7.4,12,12.9c1.8,5.5,1.9,11.4,3.9,16.9
		C221.4,575.9,222,579.5,217.9,581.1z"/>
	<path class="st94" d="M276.4,486.4c1.7-9.1-3.1-18.2-0.2-27.3c7.1,3.9,14.5,5.1,22.5,3.1c1.8-0.5,3.8-0.1,5.5,0.9
		c3.4,3.3,3,7.2,1.7,11.1c-0.5,0.9-1.2,1.7-2.2,2.3c-10.3,6.3-11,7.9-6,19.7c4,9.4,6.5,19.1,9,28.9c1.4,5.5,1.6,11,0.2,16.6
		c0,20.5-0.1,41-0.1,61.5c0,3.4,0.9,7.1-2.5,9.6c-6.6,1-13-1-19.5-1.3c-1.7-10.3,0.4-21-1.1-30.8c-1.6-11.1-1.7-22.2-2.5-33.3
		c-0.4-2.9,1.8-4.3,3.6-5.8c4.5-3.8,4.9-8.8,6.2-14.1c3.7-14.7-4.2-25-11.9-35.6C277.9,490.2,275.9,488.9,276.4,486.4z"/>
	<path class="st93" d="M413.3,429.8c3.4,1.6,3.7,5.2,4.8,8.1c9.9,26,13.5,52.6,7.2,80c-4.2,18.3-15.1,33.1-26.6,47.5
		c-4.1-0.7-3.2-3.9-2.9-6.3c1.9-15.2,1.4-30.7,4.2-45.9c0.9-1.4,2.2-2.4,3.7-3c9.7-3.5,11.4-5.4,8.2-18.1c-2.5-9.9-5.3-19.7-5-30
		c1.1-9.2,1.5-18.4,2.6-27.6C409.7,432.2,408.5,428.6,413.3,429.8z"/>
	<path class="st31" d="M333.7,531.6c-0.1,26.2-2.4,52.3-4.6,78.4c-3.5,0.6-7,1.3-10.5,1.9c-11.1,1.3-11.8,0.7-11.8-9.8
		c0-19.7-0.2-39.4,0.3-59c1.3-4.1,4.9-5.4,8.4-6.8c4.6-2,7.6-4.7,6.7-10.3c-0.4-2.7-1.1-6.5,2.6-7.4c3.3-0.8,5,2.5,6.7,4.9
		C333.1,525.9,334.3,528.5,333.7,531.6z"/>
	<path class="st94" d="M273.3,409.6c-2.7-6.1-2.9-12.7-3.1-19.2c-0.3-9.2,0-18.4-1.6-27.6c10.6-3.3,21.1-7.1,32.4-3.3
		c3.6,6.9,6.6,13.4,3.4,21.8c-2.2,5.7,4,11.5,2.7,17.8c-0.4,1.1-1.2,1.9-2.2,2.5c-4.1,0.1-7.4,3.1-11.4,3.5
		C286.2,404,280.2,408.8,273.3,409.6z"/>
	<path class="st95" d="M209.9,501.4c-3.1-10.6-2.4-21.8-4.3-32.6c-3.3-18.7-4.9-37.7-7.3-56.5c2.3-7,8.1-11,13.2-15.6
		c3.4,2.6,3.3,6.9,3.6,10.3c2.1,28.3,5.9,56.5,8.5,84.8c0,0.5-0.1,1.1-0.2,1.6C220.8,499.1,216,501.3,209.9,501.4z"/>
	<path class="st58" d="M345.1,367.3c-2.7,7.8-0.9,15.9-1.9,23.9c-1.2,2.1-3.3,2.9-5.4,2.9c-8.4-0.1-16.4,3.4-24.8,2.9
		c-2.5-0.6-5.4-2-4.8-4.4c2.4-9.5-3.4-19.3,1.5-28.6c0.9-1.6,1.6-3.3,2.9-4.6C324,359.3,335,361.5,345.1,367.3z"/>
	<path class="st96" d="M369.3,592.9c-3.1-8.9,0.5-17.8,0.8-26.6c0.5-14.8,2.7-29.5,4.2-44.3c8.3-6.7,7.8-14.1,1.8-22
		c-1.5-1.9-2.3-4.6-0.3-6.6c2.2-2.1,4.6-0.4,6.6,0.9c6.7,4.2,10.6,9.8,8.4,18.1c-2.7,17.5-3.5,35.3-5.9,52.8
		c-0.9,6.5-0.9,13.2-3.9,19.3C377.7,588.1,373.8,591,369.3,592.9z"/>
	<path class="st89" d="M400.6,514.1c5.5,4.9,0,10.1,0.1,15.1c0.4,12.1-2.8,24-2.1,36.1c-3.4,6.1-8.8,10.5-13.2,15.8
		c-3.2-0.2-3.1-2.7-2.8-4.7c2.9-19.9,3.8-40,6.4-59.9c0.3-2,1.1-3.5,2.9-4.4C395.3,511.1,398.3,510.9,400.6,514.1z"/>
	<path class="st97" d="M380.9,452.4c0.3-19.8,3-39.4,4.8-59.1c6.3,2.4,9.9,7.4,13,12.9c3,4.4,1.8,9.2,1.4,13.9
		c-0.9,9.4-0.2,19.1-4.6,27.9C391.4,451.8,386.8,454.3,380.9,452.4z"/>
	<path class="st98" d="M305.9,349.6c0-50.5,0.4-100.9-0.1-151.4c-0.1-11.2,2.4-22.7-1.4-33.9c-0.5-1.3,1.9-3.6,1.7-5.9
		c1.1,0,2.1,0,3.2,0c0,18.2-0.6,36.4,0.2,54.5c1.8,41.3-2,82.6,0.4,123.9c0.3,4.7-2,9.5,1,14C308.9,351.4,307.4,350.6,305.9,349.6z"
		/>
	<path class="st99" d="M393.8,447.6c2.5-11.6,2.9-23.5,3.9-35.2c0.2-2.1,0.6-4.1,0.9-6.2c7.2,6.5,12.5,14.1,14.7,23.6
		c-1,8.3-2.1,16.7-3.1,25c-0.3,2.6,0.5,5.4-1.6,7.6c-1.4-0.2-2.9-1.1-2.9-2.3C405.4,452.5,399.6,450.1,393.8,447.6z"/>
	<path class="st96" d="M242.2,555.9c1.8,14.3,4.1,28.5,3.6,42.9c-4-1.8-8.2-3.4-11.5-6.4c-5.7-9.8-4.9-20.7-5.2-31.5
		C232.1,555.7,236.4,553.9,242.2,555.9z"/>
	<path class="st100" d="M227.8,381.6c1,11.3,0.9,22.7,3.1,33.9c-2.1,7.6-8.3,5.4-13.5,5.6c-5-9-4.9-18.5-2.8-28.2
		C218.3,388.5,222.7,384.6,227.8,381.6z"/>
	<path class="st101" d="M309.1,540.9c0,20.3,0.5,40.7-0.1,61c-0.2,7.5,1.6,11.1,9.6,10c-4.7,2.3-9.6,1.1-14.4,0.9
		c0.1-24.4,0.2-48.9,0.3-73.3C306.6,538.4,308,539.2,309.1,540.9z"/>
	<path class="st102" d="M312.5,359.4c-0.4,3.9,0.5,7.9-2.3,11.4c-1.2,1.5-1.2,3.7-0.2,5.3c3.1,4.9,3.8,9.6,0.1,14.7
		c-1.3,1.8,0.1,3.5,2.4,3.9c0.5,3.7-2.2,4.6-5,5.5c-0.8-0.1-1.5-0.4-1.9-1.2c-1.1-3.7-1.9-7.5-3.6-11.1c-1.3-2.9-3.9-7.3,0.7-10.9
		c2.5-1.9,2.8-5.7-0.1-7.6c-4.4-3-2.3-6.4-1.7-9.9C304.8,356.7,308.6,358.5,312.5,359.4z"/>
	<path class="st103" d="M217.9,581.1c2.1-8.4-3.8-15.8-2.8-24c5.1-2.6,9.1,0.3,13.3,2.6c2.8,8.5,3,17.2,2,25.9
		c-0.2,1.4-0.9,2.5-2.6,2.5C223.3,587.4,220.3,584.6,217.9,581.1z"/>
	<path class="st104" d="M214.6,393c0.8,9.2-0.9,18.7,3.4,27.4c0.7,0.7,1,1.5,1.1,2.5c2.4,18.5,5.3,36.9,6.3,55.6
		c0.3,5.2,2.5,10.5-0.3,15.7c-1.3,1-2.6,1.2-3.9,0c-3.2-30.2-6.3-60.3-9.5-90.5c-0.2-2.4-0.2-4.8-0.3-7.2
		C212.5,395.4,213.5,394.2,214.6,393z"/>
	<path class="st105" d="M411.9,303.1c-2.6,24.8-5.2,49.6-7.9,74.4c-0.7,6.3,0.6,12.8-2,19c-1.1-1-2.2-2-3.4-3
		c3.9-5,1.7-10.9,2.4-16.3c3.3-24.5,6.1-49.2,7.3-73.9C409.5,302.2,410.6,302.1,411.9,303.1z"/>
	<path class="st106" d="M392.1,513.5c-4,9.3-2.8,19.4-4.4,29c-1.9,11.8-2.4,23.8-3.4,35.8c-0.1,0.9,0.7,1.9,1.1,2.9
		c-1.5,1.1-3,2.2-4.6,3.3c1.8-19.8,3.3-39.7,5.7-59.5c0.6-4.9-0.6-10.3,2.5-14.8C391.5,510.1,392.7,511,392.1,513.5z"/>
	<path class="st107" d="M227.8,588.1c1.3-9.2,2-18.3-0.1-27.5c0.9-1.1,1.9-1.2,3.1-0.6c1.2,10.8,2.3,21.6,3.5,32.4
		C231.3,592.2,229.3,590.5,227.8,588.1z"/>
	<path class="st41" d="M297.6,619.3c-11.2,0.8-11.2,0.8-11.1,12.5c0,2.4-0.1,4.8-0.1,7.2c-4.6-2-1.6-5.5-1.6-8.4c0-4,0-8-0.1-12
		C289,618.3,293.4,617.4,297.6,619.3z"/>
	<path class="st108" d="M170.7,173.1c-6.3,1.7-6.2,1.7-6.3,7.1c-0.1,2.7-2.6,2-4.3,2.4c-7.3,1.8-7.7,3.1-2.8,8.4
		c1.4,1.5,0.7,2.5-0.5,3.1c-3.4,1.4-9.6-3.6-9.1-7.2c0.9-7.6,12.8-16.7,20.3-15.5C168.6,171.4,169.2,172.1,170.7,173.1z"/>
	<path class="st84" d="M447,673.4c-2.8,25.2-5.9,49.7-7.9,74.3c-0.8,10-3.9,19.9-3.5,29.4c0.3,7.9-0.4,14.4-3.5,21.5
		c-1.8,4.1-0.6,9.5-1,14.3c-0.1,1.7-0.4,4.3-3,3.7c-1.9-0.4-1.3-2.6-1.1-4.1c3.4-28,7.5-55.9,9.9-83.9c1.4-16.6,5.4-32.8,5.9-49.4
		C442.8,676.8,442.6,674.2,447,673.4z"/>
	<path class="st84" d="M444.3,670.1c6.9-58.6,13.7-117.1,20.6-175.7c1,0.1,2.1,0.2,3.1,0.3c-6.8,58.5-13.7,117.1-20.5,175.6
		C446.4,670.2,445.3,670.1,444.3,670.1z"/>
	<path class="st109" d="M471.5,438.8c2.1-11.5,0.2-23,3.8-34.8c3.6-11.8,3.3-24.7,4.8-37c1.5-12.2,3-24.4,4.5-36.7
		c0.9,0.1,1.8,0.2,2.7,0.3c-4.3,36.1-8.5,72.2-12.8,108.3C473.4,438.9,472.5,438.9,471.5,438.8z"/>
	<path class="st110" d="M411.9,791.8c0.9-10.3,1.2-20.7,4.8-30.6c5.7-4,4.1-10.8,6.3-16.2c0.8-1.8-0.2-4.4,3.3-5.5
		c0.1,4,0.2,7.6-0.8,11.5c-1.4,5.4-5.9,10.9-0.5,16.8c1.1,1.2,3.9,3.4,1.6,5.4c-2.5,2.1-3.9-1.7-6-2.2c-0.8,3.2-1.5,6.2-2.2,9.3
		c-2.8,3.9,1,9.7-3.8,13.1C413.7,792.9,412.8,792.4,411.9,791.8z"/>
	<path class="st111" d="M498.2,235.6c0-0.6,0-1.2,0-1.8c3.1-4.5,5.7-4,8.8,0.3c2,2.8,2.6,6.5,2.6,8.8c0.1,7.2-1.8,14.4-3.7,21.5
		c-3-6.3,2.5-12.7-0.7-18.9c-2.4,2-4.9,4.7-5.6-1.6C499.3,241.1,500.8,237.9,498.2,235.6z"/>
	<path class="st112" d="M467.2,488.5c-0.1-15.1,1.1-30.2,4.9-44.9C477.2,459.3,468.7,473.5,467.2,488.5z"/>
	<path class="st109" d="M490.3,291.6c0,11.5-1,22.9-4.2,34C487.4,314.3,485.9,302.7,490.3,291.6z"/>
	<path class="st113" d="M434.9,796.4c3.4,6.9,3.2,14.1,0,21.4C434.9,810.7,434.9,803.5,434.9,796.4z"/>
	<path class="st114" d="M414.6,793.5c2.7-4-1.4-9.8,3.8-13.1c0,8.5,0,17.1,0,25.6c-1,0-1.9,0-2.9,0C413.4,802,416,797.5,414.6,793.5
		z"/>
	<path class="st115" d="M373,204c-1.2,5.1-3.8,7.6-7.2,9.3c-2.5,1.2-5.9,3.9-7.8,0.7c-1.4-2.5,2-4.9,4.1-6.8
		C365,204.6,369,206.4,373,204z"/>
	<path class="st116" d="M252,316.7c1.5,7.5,1.6,14.5,0.8,22.1c-6.5-5.6-6.7-5.7-3.8-12.8C250.2,323.2,247.1,319.5,252,316.7z"/>
	<path class="st117" d="M331.1,223.3c1.9,10.1,0.8,18.5,0.1,26.7c-0.1,1.1-1.2,2.6-2.9,1.9c-1.3-0.5-2.4-1.4-2-3
		C327.9,241.1,326,232.6,331.1,223.3z"/>
	<path class="st118" d="M315.1,174.7c6.5-1.1,10.9,0.1,15.3,3C322.3,178.1,322.3,178.1,315.1,174.7z"/>
	<path class="st117" d="M326.5,255.2c3.5-0.2,5.1,1,5.3,3.5c0.1,0.6-0.7,1.8-1,1.8C327.8,260.3,327.5,257.8,326.5,255.2z"/>
	<path class="st74" d="M281.9,137.4c5.3,0.7,9.4,2.3,11,7.3c0.4,1.3,0.2,2.8-1.1,3.5c-1.2,0.7-3,0.5-3.4-1
		c-1.9-6.8-6.3-5.2-10.7-3.1c-2.2,1-5.1,2.7-6.4,0.1c-1.2-2.6,1.9-3.9,4.2-4.8C277.7,138.6,280,138,281.9,137.4z"/>
	<path class="st119" d="M275.1,163.6c-1.7-1.2-4.2-3-1.8-4.5c3.3-2.2,5.7,0,6.5,3.7c0,0-0.2,0.4-0.2,0.4
		C278.3,164.6,276.7,164.1,275.1,163.6z"/>
	<path class="st67" d="M275.1,163.6c1.5-0.2,3-0.3,4.6-0.5c1.5,1.9,5.2,3.7,2.1,6.2c-3.6,2.9-2.8-1.9-4.1-3.1
		c-0.7-0.6-1.8-0.9-2.8-1.3C275,164.5,275,164,275.1,163.6z"/>
	<path class="st120" d="M235.3,86.8c8.9-0.4,14,2.8,14.8,10.6c0.5,4.6,5.1,7.7,3.9,12.7c-0.4,1.7,0.4,4.1-2.2,4.5
		c-2.8,0.4-2.9-1.7-2.8-3.7c0.1-3.8-0.2-6.9-5.2-3.4c-1.9,1.3-3.7,0.1-5.1-1.1c-1.1-0.9-0.3-2,0.5-2.6c8.7-7.3,3.4-11.6-3.4-15.6
		C235.5,88.1,235.5,87.3,235.3,86.8z"/>
	<path class="st121" d="M345.6,87c2.2,12.7,15.4,2.7,20.1,10.6c-2.7,2.2-5.4,0.1-8,0.3c-3.5,0.3-11.2-2-6.5,6.7
		c1.1,2.1-0.2,3.3-2.2,4.3c-3.5,1.6-7,3.1-4.9,8.4c0.9,2.1-1.4,2.5-3.1,1.7c-3.7-1.7-4.7-5.2-2.3-7.9
		C344.9,104.1,344.7,95.7,345.6,87z"/>
	<path class="st74" d="M190.7,121.4c-2.3-4.2-2.8-8.4-7.5-8.7c-0.8-0.1-2-1.3-1.3-2.5c5.2-8.4-2.9-8.6-7.8-11.4
		c4.6-2.8,7.7-1.2,10.8,1.5C190.5,105.3,193.2,113.7,190.7,121.4z"/>
	<path class="st122" d="M411.3,99.9c3.6-0.1,7,1.5,8.6,4.7c2.1,3.9,2.9,8.3,6.1,11.8c1,1.1,1.1,3.8-1.3,4.7
		c-1.9,0.8-2.9-0.7-3.6-2.2c-1.1-2.3-2.7-3.8-5.6-3.7c-3.1,0-3.7-1.7-2.1-4.2c1-1.6,2.5-3.3,0.6-5c-1.8-1.6-4.1-0.3-6.2-0.5
		c-2.7-0.3-4.4,8-6.7,1.3c-1.5-4.3,4.2-5.2,7.6-6.5C409.4,100,410.3,100,411.3,99.9z"/>
	<path class="st123" d="M371.9,155.2c-1.7-7.6,3.1-9.7,8.1-11c4.6-1.2,9.3-1,10.8,5c0.4,1.3,1.1,2.7-0.5,3.4
		c-0.8,0.4-2.6,0.3-2.9-0.3C380.7,141.5,377.3,151.4,371.9,155.2z"/>
	<path class="st124" d="M428.4,176.2c6.5-2.9,9.7-2.1,12.8,1.9c3,4,4.1,8,2,12.5c-0.8,1.6-2.5,3.2-4.5,2.8c-3.1-0.6-1.3-2.8-0.9-4.4
		C439.2,182.5,436,178.6,428.4,176.2z"/>
	<path class="st125" d="M425,182.7c-3.3,8.3-3.3,17.3-4.9,26c-3-10.5,0-20.7,1.2-30.9C423.8,178.5,424.7,180.4,425,182.7z"/>
	<path class="st126" d="M212.1,143.8c3.4,0.2,6.5,1,7.5,4.7c1.1,3.8,5.4,7.2,2,11.7c-0.9,1.3-1.8,2.9-3.8,2.2
		c-1.6-0.5-1.2-2.1-1.4-3.3c-0.7-5-0.6-10.5-8-10.7c-1.3,0-1.8-1.2-1.6-2.3C207.5,143,210.2,144.2,212.1,143.8z"/>
	<path class="st127" d="M374.8,766.1c-2.1-9,1.9-17.3,2.8-26c1.3-0.1,3.7-4.8,3.6,0.4c0,2.5-0.8,4.7,0.6,7.3
		c1.6,2.9,2.5,3.9,4.8,0.8c3.6-4.9,11.3-5,13.4-11.6c1.3,0.4,1.7,1.6,2.1,2.7c-0.3-1.6,0.5-3.6-2-4.2c-2.6-0.2-6.4-0.1-6.2-3.1
		c0.1-2,0.5-6.4,6.5-5.2c3.3,0.7,8.2-4.2,10.8,1.4c2.8,6,4.6,12.9,0.1,18.9c-1.8,2.4-3.1,4.9-4,7.6c-1.3,4.2,0.1,10.9-8.3,8.1
		c-0.4-0.1-1.6,0.7-1.8,1.3c-0.5,1.9,1.3,2.9,2.4,3.7c3.1,2.3,6.5,4,7.8,8.4c1,3.3-1.5,5.9-2.5,5.5c-5.4-2.1-4.4,2.2-4.9,4.4
		c-2,9.8-4.7,12.3-15.7,13.4c-0.4-6.4-0.4-6.4,4.9-16.5c-6,5.1-4.3,11.6-6.7,16.6c-7.4,0.1-8.9-1.3-6.5-6.3
		c-0.9-5.4-1.1-10.8,0.5-16.1C380.4,773.1,380.1,769.2,374.8,766.1z"/>
	<path class="st128" d="M401.8,622.6c0.5-5.7,1.1-13.3,1.9-20.9c0.3-3,2.4-5.3,4.5-7.4c1.1-1.2,3.9-1.7,0.4-3.7
		c-5-2.8-2.2-7.5-0.7-10.4c1.9-3.7,7.1-2.1,10.8-3c2-0.5,3,2.7,1.1,4.8c-3.5,3.7-2.8,8.4-3,12.8c-0.1,1.3,0,2.7,1.5,3.4
		c3.7,1.9,4.6,3.4,1.9,5.5c-4.5,3.6-5.2,10.7-12,11.9c-2,0.4-2.9,2.3-2.5,4.4c0.7,4.3,5.2,5.1,7.9,7c2,1.4,7.7-0.7,5.2,4.6
		c-1.8,3.9-5.9-1.3-9,0.1c-1.3-3.4-3.2-4.9-7.2-3.3C401.4,628.8,400.7,626.2,401.8,622.6z"/>
	<path class="st129" d="M401.1,652.8c0.1,11.9-2.5,23.1-1.2,34.4c0.2,2.2-0.9,4.7-1.8,6.9c-0.6,1.4-2.2,1.4-3.6,1.1
		c-1.3-0.3-1.3-1.5-0.9-2.6c1.5-5.1,1-11.2-0.3-15.3c-2.1-6.4,5.1-11.6,0.6-17.9C393,658.3,396.8,653.6,401.1,652.8z"/>
	<path class="st130" d="M387.6,650.2c-2.4-13,2.1-25.2,4.6-37.6c2.3,5.3,4.2,10.2,1,16.3c-1.6,3.1-3.4,7.5-1.2,12
		C394,644.9,389.3,647.1,387.6,650.2z"/>
	<path class="st131" d="M382.3,799.9c-3.2-4.8,2.9-9.8-0.4-15c-1-1.6,9.2-5.2,11-3.2c0.4,0.5,0.6,2,0.3,2.1
		c-6.2,3.7-6.5,10.5-9.2,16.1C383.6,799.9,383,799.9,382.3,799.9z"/>
	<path class="st132" d="M415.3,410.6c1-4.4-3.3-6.6-4.7-10.2c-3.4-8.9,1.4-6.6,6.1-5.7C418.2,400.2,416.6,405.4,415.3,410.6z"/>
	<path class="st128" d="M399.9,647.2c-7.8-8.4,0.5-10.9,3.3-15.8C409.6,638.9,399.1,641.1,399.9,647.2z"/>
	<path class="st133" d="M400.1,735.5c0.6-1.6-0.2-4.4,2.2-4.5c2.8-0.1,2,2.7,1.8,4.3c-0.5,4,0.5,8.3-2.7,14.4
		c-0.6-5.8-1-9.2-1.4-12.7C400.3,736.6,400.4,736.1,400.1,735.5z"/>
	<path class="st131" d="M377.9,777c-0.3,5.6,1.1,11.3-2,16.6c-2-1.1-2.9-2.9-3.2-5.1c0,0,0,0,0,0c1.8-3.4,0.1-7.3,1.8-10.7
		C375.3,776.2,376,774,377.9,777z"/>
	<path class="st81" d="M377.9,777c-6.3,1.8-1.1,8.8-5.2,11.5c0.7-7.5,1.4-15,2.1-22.5c3.8-0.3,7.4,0.5,8.6,4.3
		C384.7,774.5,380.1,775,377.9,777z"/>
	<path class="st134" d="M297.7,269.1c0.8,5.2-0.7,10-2.3,14.8c-1,3.2-3.1,3.9-5.8,4.4c-4.6,0.9-8.5-5.7-14.1-1.1
		c-0.8,0.7-3.5-7-3.7-11c-0.3-4.9-0.6-10,0-14.7c0.5-3.6,5-6.7,7.7-10.1c7.7,4.6,2,10.5,2,15.6c0.8-0.7,1-2.3,2-3.4
		c1.1-1.4,2.1-3.1,4.4-2.6c3.8,6.1,3.6-3.8,6.5-1.6c2.8,2.6,1.3,5.9,1.4,8.9c0,0.7-0.4,1.4-0.4,2.2
		C295.7,269.5,296.4,268.9,297.7,269.1z"/>
	<path class="st135" d="M287.9,261.2c-1.6,2.8-3.5,5.4-4.6,8.4c-1.1,2.8-3.4,2-4.7,1.6c-3.1-0.9,0.4-2.1,0.2-3.3
		c-0.9-5.5,5.3-10.7,0.7-16.4c0.8-2.7,3.2-5.2,0.7-8.2c-1.6-1.8-0.9-3.2,0.8-4.7c2.6-2.3,2.6-4.6,0.1-7.3c-2.6-2.9,0-4.9,2.4-4.7
		c5.3,0.3,3.5,6.8,7.4,9.3c2.5,1.6-1.7,1.9-2.5,2.9c-1.6,2.1-6.3,2.8-0.4,5.4c1.6,0.7,0.8,2.4-0.2,3.3
		C283.4,252.1,285.3,256.6,287.9,261.2z"/>
	<path class="st136" d="M286.9,185c-2.3,5.8-6.4,10.5-7.6,17c-0.7,4.2-5.4,2.9-8.9,2.7C278,199.7,278.9,189.6,286.9,185z"/>
	<path class="st137" d="M273,225.6c0.3,9.1,1.4,18.3-2,29.1C268.7,243.5,271.4,234.6,273,225.6z"/>
	<path class="st138" d="M297.7,269.1c-0.7,1.6-1.3,3.2-2.3,5.7c-1.8-5.5-1.2-10.4-1-15.2C301.2,260.9,296.1,266.1,297.7,269.1z"/>
	<path class="st139" d="M411.9,303.1c-1.2,0.1-2.4,0.1-3.5,0.2c-1.6,0.1-3.8,3.7-4.3,0.9c-0.6-3.4-4.8-5.8-2.9-9.5
		c1-1.8,2.1-1,3.4,0.9c3.1,4.6,5.2,1.5,5.3-1.6c0.1-3.6,2.4-7.7-3.6-10.6c-3.8-1.8-2.7-7.3,2.5-9c3-1,3.5-3.2,3.7-5.5
		c0.2-3.1-3.1-0.8-4.5-2.9c6.1-1.7,5.1-7.2,6.5-11.6c0.7-2.1,0.3-3.6-2.3-4.1c-4.3-0.7-3.5-2.9-0.7-4.4c2.4-1.3,4-2.4,3.7-5.4
		c-0.4-4.2-4.8,0.6-5.5-3.2c3.4-3.1,8-6.2,8.5-13.4c1,7.7,3.5,7.2,6.5,2.6c2.3,1.9,0.9,3.7,0.1,4.5c-10,9.2-7.6,21.9-9.2,33.3
		C413.4,277.1,413,290.1,411.9,303.1z"/>
	<path class="st140" d="M426.4,273.4c1.4,3.6,2.3,7.1-0.4,10.6C421,280.2,424,276.8,426.4,273.4z"/>
	<path class="st141" d="M392.1,513.5c-0.5-1.6-1.5-2.7-3-3.3c0.9-9.2-5.5-12.9-13-16.9c0,5.2,4,7.7,5.6,11.3
		c4.8,11,4.2,12.8-7.5,17.4c-7,2.2-10.6,0.8-12.4-7.3c-1.8-8.2-3.1-17.8-13-21.8c-2.2-0.9-2.4-2.8-2.3-4.7c0.2-5.3-0.9-10-4.4-14.2
		c-0.8-1-1.7-2.7-1.4-3.6c1.9-5.5,7.4-6.6,12-8.5c4-1.6,10.2-3.4,11.9,0.6c2.9,7.2,8.6,7.6,14.3,9.4c1.6-0.3,3.2-0.5,5.3,1.2
		c-3.9-4.1-3.3-8.5-3.6-12.8c-6.1-2.8-4.4-5.4,0.2-8c4.3-1.6,8.6-3.2,13-4.8c11.9-1,11.9-1,13.5,10.3c0.2,1.5,0.9,3,1.4,4.5
		c2.6,12.2,5.2,24.3,7.7,36.5c1.1,5.3-0.3,9.4-6,11.4c-3.3,1.1-6.5,2.5-9.8,3.8C397.8,513.9,395,513.7,392.1,513.5z"/>
	<path class="st141" d="M309.1,540.9c-1.5-0.5-3.1-1-4.6-1.5c2.2-14.9-3.9-28.2-9.1-41.4c-1.9-4.7-1.3-10.1-4.9-14.4
		c-2.1-2.5,1.2-4.9,3.8-5.8c3.2-1.2,6.7-1.9,10-2.8c2.3-2.5,5.7-2.5,8.5-3.7c16-1.5,23.9,5.5,22.7,19.9c0,5.2-1.8,11,6.8,12
		c3.6,0.4,13.3,18.3,11.9,21.3c-2.3,5-7.4,6.5-12.5,7.3c-2.6,0.4-5.3-0.1-8-0.2c-3.5-3.5-4.4-8.9-9-12.1
		C324.4,537.3,324.4,537.3,309.1,540.9z"/>
	<path class="st141" d="M307.3,399.4c1.7-1.5,3.5-3.1,5.2-4.6c10.2-1.6,20.2-4.1,30.7-3.6c14.8,5.9,18.8,15.9,11.6,28.9
		c-1.7,3.1-4.3,4.5-7.3,5.9c-4.4,2-7.1,4.6-4,9.9c1.3,2.2,0.9,5.3,2.1,7.6c4.5,8.5,1.6,13.4-7.3,15.8c-7.5,4.3-11.3,3.6-14.9-3.5
		c-3.4-6.7-5.5-13.8-6.2-21.3c-0.2-11,0.2-22.1-8.7-30.8C307.3,402.5,306.5,401.1,307.3,399.4z"/>
	<path class="st142" d="M319.3,433.3c1.5,5,3.1,10,4.3,15.2c1.8,7.9,4.4,14.3,14.7,10.8c0,10.8-0.6,21.5-2.8,32
		c-2.2-13.6-7.9-17.9-23.1-17.5c-4.3,1-5.1-1.9-5.5-5c-0.3-2.9-0.1-5.9,0-8.8c2.1-10.9,3.7-21.8,3.6-33c0.5-2.9,1.5-5.3,5-5.5
		C319.5,424.6,319.4,428.9,319.3,433.3z"/>
	<path class="st143" d="M380.7,460.3c3.6,4.1,1.8,10.5,8,14.5c-4.9,0.6-7.2-1.6-9.8-3C379.7,468.1,377.8,463.9,380.7,460.3z"/>
	<path class="st141" d="M230.8,560c-1,0.2-2.1,0.4-3.1,0.6c-4.6,0-8.4-2.6-12.7-3.5c-3.1-5-8.9-7.1-12.3-12.3
		c-2.7-4.1-1.1,3.1-4.4,2.7c-5.5-17.5,1.2-32.2,11.6-46.1c3.5-2.8,7.1-5.5,11.4-7.1c1.1,0,2.2,0,3.3,0c5.8-2.7,10.1-1.9,11.8,4.9
		c0.5,2.6,1,5.3,1.4,7.9c0.4,3.5-1.3,6.1-3.6,8.5c-1.9,1.9-5.7,2.8-5.6,5.4c0,4.7,1.9,9.3,1.9,14.2c0,2.3,2,1.9,3.7,1.2
		c2.1-1,3.9-3.1,6.7-2c5.8,0,11.9,0,13,7.6c1.2,8.5-4.9,11.5-11.6,13.9C238.4,557.3,234.6,558.6,230.8,560z"/>
	<path class="st144" d="M312.4,426.9c1.3,10.9,0.8,21.6-3.2,32c-1.3,2.9-3.3,4.7-6.6,4.8c-4.5,2.1-9.5,2.2-14.2,2.8
		c-5.7,0.7-9.9-2-12.2-7.3c-2.7-4.7-1.5-11.3-7.3-14.6c-0.3-0.2-0.5-1.1-0.3-1.5c3.9-10.8-1-22.9,4.7-33.5
		c5.6-6.9,13.2-7.5,21.3-6.8c0.2,0.2,0.4,0.5,0.6,0.5c7.4-1.7,11.2,1.2,11.6,8.6c0.7,1.9,0,4.1,1.3,6
		C310.4,420.4,311.7,423.6,312.4,426.9z"/>
	<path class="st141" d="M276.4,486.4c8.5,5.4,12.5,14.6,16.9,22.6c6.2,11.1-1.4,30.9-12.2,38.4c-6.5,0.4-15.1,3.8-18.5-2.7
		c-4.7-9-17.2-15.3-12.1-28.6c0.6-1.6,0-3.7-0.3-5.5c-2.6-14.5,6.2-24.7,21.2-24.4C273.2,486.4,274.8,486.4,276.4,486.4z"/>
	<path class="st141" d="M218.2,421.9c0.1-0.5,0.1-1-0.1-1.5c3.4-3.9,9.7-0.3,12.9-4.9c5.4,0,10.8,0.1,16.3-0.1
		c7.7-0.2,13,4.2,16,10.2c3.6,7.2,3.4,16.4-3.3,20.5c-9.5,5.9-8.2,12.9-5.8,20.7c1.4,4.8,2.7,8.4-2.1,12.7c-3.9,3.5-6.8,4-11.1,2.1
		c-1.3-0.6-3.2,0-4.8,0c-5-0.8-5.1-5.3-5.8-8.6c-2.9-14.1-8.4-27.6-9.6-42.1C220.2,428,217.6,425.4,218.2,421.9z"/>
	<path class="st145" d="M218.2,421.9c8.5,8.3,5.2,20.3,9.4,30.1c4.1,9.4,3.7,20.3,8.3,29.8c-1.3,5.8,3.9,11.5,0.4,17.4
		c-2.8-4.3-7.4-4.4-11.8-4.9c-2.6-22.9-5.3-45.9-7.8-68.8C216.6,424.4,217.6,423.1,218.2,421.9z"/>
	<path class="st100" d="M240.8,534.4c-1.1,0.8-2.1,1.7-3.2,2.5c-2.7,1.9-4.7,5.9-8.9,3.6c-3.7-2-0.7-5.3-0.9-8c-0.2-2.4,0.3-5.4-1-7
		c-4.4-5.2-2.3-7.9,3-9.7c4.3-1.5,4.7-6.3,7.9-8.7C240.6,516,238.7,525.4,240.8,534.4z"/>
	<path class="st146" d="M302.6,463.7c2.2-1.6,4.4-3.2,6.6-4.8c1.7,4.8-3.5,11.1,3.2,14.9c-2.5,1.9-5.4,0.8-8.1,1.3
		C303.7,471.3,306.1,467,302.6,463.7z"/>
	<path class="st147" d="M305.8,418.8c-2.8-2.3-0.5-4.6,0.1-6.8c2.1-4.2-1.8-7.4-2.1-11.2c0.6-0.6,1.2-1.1,1.7-1.7
		c0.6,0.1,1.1,0.2,1.7,0.3c12.2,8.5,12.4,21.1,12.1,34c-1.2-3.7-2.5-7.5-3.7-11.2C313.1,418.8,309.2,419.5,305.8,418.8z"/>
	<path class="st102" d="M303.9,400.7c1,1.2,1.7,2.8,2.9,3.7c4,3.1,4.8,5.6-0.9,7.5c-0.8-0.1-1.5-0.2-2.3-0.3
		c1.9-7.9-6.2-5.7-9.1-8.9C298.1,403.7,299.7,396.5,303.9,400.7z"/>
	<path class="st148" d="M313.3,490.7c-0.5-2-0.5-4,1.2-3.6c4.1,0.8,3.6,4.8,4.3,7.7c0.4,1.4,0.7,4.1-1.3,3.8
		C312.8,497.7,314.8,492.8,313.3,490.7z"/>
	<path class="st149" d="M334.8,402.7c1.1,0.5,1.5,0.6,1.6,0.7c2.5,3.9,3.5,8.1,1.9,12.6c-0.1,0.2-1.9,0.3-2.1,0
		C334.2,412,332.7,407.8,334.8,402.7z"/>
	<path class="st150" d="M305.8,418.8c6.3-3.4,9.4-2.3,9.8,3.3c-2.2,0.8-2.8,2.7-3.2,4.8C310.2,424.2,308,421.5,305.8,418.8z"/>
	<path class="st151" d="M290.1,447.6c-4.1-8.4-3.3-15.4-5-21.9c-0.3-1.2-0.3-2.8,1.5-3.1c1.6-0.3,2.7,0.7,2.9,2
		C290.7,431.5,292.9,438.3,290.1,447.6z"/>
	<path class="st152" d="M267.1,509.4c0-1.6-0.3-3.6,1.8-3.9c2.2-0.4,2.4,1.6,2.7,3.1c1.1,4.4,2.3,8.8,3.2,13.2
		c0.3,1.6-0.2,3.5-2,3.9c-2.3,0.5-2.3-1.5-2.7-3C269.1,518.2,268.1,513.8,267.1,509.4z"/>
	<path class="st153" d="M243.9,427.1c0.6,0.9,1.3,1.5,1.4,2.2c0.3,3.2,3.6,6.3,0.6,9.6c-0.2,0.3-1.8-0.1-2.1-0.5
		C242,435,240,431.4,243.9,427.1z"/>
</g>
</svg>
