<?xml version="1.0" encoding="utf-8"?>
<!-- Generator: Adobe Illustrator 19.0.0, SVG Export Plug-In . SVG Version: 6.00 Build 0)  -->
<svg version="1.1" id="Calque_1" xmlns="http://www.w3.org/2000/svg" xmlns:xlink="http://www.w3.org/1999/xlink" x="0px" y="0px"
	 viewBox="0 0 595.3 841.9" style="enable-background:new 0 0 595.3 841.9;" xml:space="preserve">
<style type="text/css">
	.st0{fill:#FEFEFE;}
	.st1{fill:#272626;}
	.st2{fill:#161616;}
</style>
<g>
	<path class="st0" d="M-3.2,418.5c0-100.9,0-201.8-0.1-302.7c0-4.1,0.4-5.6,5.2-5.6c196.1,0.2,392.1,0.2,588.2,0
		c4.2,0,5.2,0.8,5.2,5.1c-0.1,202-0.1,403.9,0,605.9c0,4.7-1.3,5.3-5.6,5.3c-195.9-0.1-391.7-0.1-587.6,0c-4.3,0-5.5-0.9-5.5-5.4
		C-3.2,620.3-3.2,519.4-3.2,418.5z"/>
	<path class="st1" d="M126.2,609.4c-13-12.3-25.6-24.9-36.7-39C60.2,533,41.2,491,33.6,444.1c-10.8-66.6-0.6-129.8,33.9-188
		c43.5-73.3,107.4-119.2,191.3-134.8c79.6-14.8,153.1,2.2,218,50.5c59.4,44.2,96.5,103.2,108.9,176.7
		c13.1,77.7-2.7,149.5-49.2,213.4c-44.6,61.2-104.9,98.7-179.6,111.4c-74.5,12.7-143.2-3.2-206-45.3c-1.3-0.9-2.5-1.9-4.2-1.9
		C139.1,621.4,131.5,616.8,126.2,609.4z"/>
	<path class="st2" d="M126.2,609.4c6.7,5.7,14.4,10.2,20.4,16.7c-8.6,5.1-17.1,10.1-24.9,16.6c-16.1,13.5-20.3,30.4-16,50.3
		c2,9.4,4.1,18.8,9.6,27c0.5,0.8,1.2,1.8,0.3,2.5c-0.5,0.4-1.5,0.5-2.2,0.3c-22.1-4.6-44.6-6.3-66.9-9.6c-2.5-0.4-5-0.3-4.7-4.2
		c1.6-19.9,5.4-39.2,15.4-56.9C72.4,625.3,96.1,612.1,126.2,609.4z"/>
	<path class="st2" d="M301.3,589.3c-0.5-0.3-1.1-0.9-1.5-0.8c-8.8,1.7-11.8-4.2-15.1-10.6c-23.1-46.4,3.2-100.7,54.1-110.7
		c40.6-7.9,80.6,17.8,89.7,61.1c1,4.6,0.9,9.3,1.5,14c0.3,2.8-0.7,5-2.4,7c-0.5,3.4-3.3,4.8-5.6,6.4c-24.3,17.2-51.2,28.3-80.6,33.1
		c-11.1,1.8-22.2,2.9-33.5,2.4C305.5,591,303,591.5,301.3,589.3z"/>
	<path class="st2" d="M427.5,245c5.1,6.6,2,13.7,0.7,20.3c-5,25.9-20,44.8-43.7,55.6c-23.7,10.8-48,9.7-70.5-3.9
		c-26.7-16.1-38.8-40.6-37.5-71.5c0.6-13.3,5.2-25.6,12.5-36.9c1.4-2.1,3.5-2.2,5-3.7c5.1-3.2,11.1-2.6,16.5-2.5
		c17.1,0.4,34,2.5,50.6,7c22.1,6,42.3,15.9,60.9,28.9C424.6,240.1,427.5,241.5,427.5,245z"/>
	<path class="st2" d="M124.1,447c0.4-9,7.6-13.6,13.4-18.4c16.8-14,36.7-19.7,58.2-17.1c35.1,4.3,61.3,30.9,66.7,64.8
		c4.2,26.7-4.8,49-23.6,67.5c-7.1,7-15.5,12.6-25.2,15.7c-1.8,0.6-3.7,1.3-5.7,0.5c-2.5,1.4-4.1-0.5-5.8-1.6
		c-26.7-18-47.9-41.1-63-69.5c-5.6-10.6-10.7-21.5-14.1-33C124,453.2,122.2,450.2,124.1,447z"/>
	<path class="st2" d="M488.7,468c-2.5,3.7-6.8,3.7-10.5,4.5c-42.1,8.2-82.8-21.4-89.8-61.4c-7.4-42.9,19.1-81.5,62.1-89.5
		c13.1-2.4,26.1-2.2,38.5,3.6c3.1,2.8,4.1,6.7,5.2,10.4c13.2,42.3,13.4,84.4-1.4,126.4C492,464.3,491.7,467.1,488.7,468z"/>
	<path class="st2" d="M209,233c4.3-1.8,7.7,1,10.9,2.6c23.9,12.5,38.5,31.8,42.5,58.8c3.5,23.2-3.7,43.1-18.7,60.6
		c-13.2,15.4-30,23.7-50.2,25.7c-27.6,2.7-49.4-8.1-67.4-28.2c-1.4-1.6-1.9-3.3-2.1-5.3c-1.7-2.3-0.6-4.5,0.1-6.7
		c13.5-44.1,39.9-78.7,77.6-104.8C203.8,234.2,205.8,231.6,209,233z"/>
	<path class="st0" d="M209,233c-31.1,18.5-54.2,44.3-70.7,76.3c-6.2,12-11.4,24.5-14.3,37.9c-6.4-4.9-8.7-12.3-10.7-19.5
		c-7.8-27.9-3.1-53.6,16.9-75.1c19.5-21,44.1-28.5,72.3-23C204.8,230,208.2,229.4,209,233z"/>
	<path class="st0" d="M488.7,468c18-45.5,18.2-91.2,2.1-137.2c-0.6-1.8-1.2-3.7-1.8-5.6c9.2,1.7,16.7,6.7,23.5,12.6
		c43.9,37.3,34.2,106-18.4,129.5C492.6,468,490.8,470.3,488.7,468z"/>
	<path class="st0" d="M124.1,447c7.1,29,21.2,54.4,40.7,76.8c12.4,14.3,26.5,26.8,43,36.3c-0.5,2-2.2,1.9-3.7,2.3
		c-45.9,11.7-92.9-23.9-94.2-71.1c-0.4-15.1,2.6-29.3,10.4-42.2C121,448,121,444.1,124.1,447z"/>
	<path class="st0" d="M427.5,245c-1.4-1.3-2.7-2.8-4.3-3.9c-38.7-27.6-81.6-40-129.1-36.2c-3.6-2.5,0.4-3.6,1.2-4.5
		c11.4-12.6,25.2-21,41.9-24.5c43.1-9.1,86.9,21.9,91.5,65C429,242.4,430.5,244.5,427.5,245z"/>
	<path class="st0" d="M301.3,589.3c46.9,1.9,89.1-11.3,126.2-40.1c3,0.1,1.5,2.2,1.4,3.4c-2.7,30.9-29.6,59.8-60.6,65.3
		c-29.8,5.3-59.4-5.6-75.8-28.5C295.7,589.3,298.5,589.3,301.3,589.3z"/>
	<path class="st2" d="M318.8,375.9c12.1,0,21.4,9.1,21.5,21c0.1,11.4-9.9,21.5-21.3,21.5c-11.9,0-21.2-9.4-21.2-21.3
		C297.7,384.6,306.4,375.9,318.8,375.9z"/>
	<path class="st2" d="M319,365.3c-5.3,0-9.5-3.9-9.5-8.9c0-5.7,3.9-9.7,9.5-9.6c4.6,0.1,9.4,5.1,9.2,9.7
		C328.1,361.2,323.9,365.3,319,365.3z"/>
	<path class="st2" d="M368.5,397c-0.1,5.6-3.9,9.6-9,9.5c-4.8-0.1-9.6-4.9-9.5-9.5c0.1-4.8,5.3-9.4,10.2-9.3
		C365.1,387.9,368.7,391.9,368.5,397z"/>
	<path class="st2" d="M309.5,437.5c0.1-5.5,4.5-9.6,9.8-9.3c4.4,0.3,8.8,5,8.9,9.5c0.1,4.9-4.5,9.2-9.6,9
		C313.4,446.6,309.4,442.6,309.5,437.5z"/>
	<path class="st2" d="M269.4,397.1c0-5.7,3.5-9.4,8.8-9.4c5,0,8.8,3.7,8.9,8.8c0.1,5.7-3.4,9.8-8.6,9.9
		C273.4,406.6,269.4,402.5,269.4,397.1z"/>
</g>
</svg>
